<svg width="2369" height="1641" viewBox="0 0 2369 1641" fill="none" xmlns="http://www.w3.org/2000/svg">
<g clip-path="url(#clip0_44_2679)">
<path fill="currentColor" d="M272.555 53.514L282.908 25.0585C283.744 22.7046 283.065 20.0369 281.182 18.4154L263.98 3.66457C262.882 2.72303 261.47 2.19995 260.058 2.19995H219.797C218.699 2.19995 217.653 2.46149 216.764 3.03688L174.987 27.5693C173.418 28.5108 172.372 30.0801 172.058 31.8585L142.882 222.469C142.673 223.776 142.098 224.927 141.157 225.869L59.7451 305.795C58.3333 307.155 57.7059 309.143 58.0196 311.078L68.3202 372.906C68.4771 373.743 68.7385 374.528 69.2091 375.208L108.32 435.362C109.052 436.512 109.418 437.925 109.261 439.285L103.614 491.645C103.353 493.946 104.503 496.248 106.49 497.451L136.817 515.916C138.49 516.91 139.536 518.688 139.693 520.624L144.085 580.621C144.137 581.615 144.503 582.608 145.026 583.445L157.261 602.538C157.836 603.427 159.039 603.532 159.771 602.799L206.725 554.467C209.392 551.694 213.941 552.113 216.084 555.304L222.725 565.242C223.405 566.236 224.921 565.922 225.078 564.719L230.097 534.59C230.516 531.974 232.66 529.934 235.274 529.62L253.104 527.371C254.934 527.162 256.816 527.79 258.123 529.097L283.274 554.258C284.006 554.99 284.947 555.513 285.94 555.827L331.587 568.276C334.359 569.008 337.287 567.701 338.594 565.138L352.189 537.937C354.28 533.753 359.509 532.236 363.535 534.59L399.613 556.141C400.502 556.664 401.234 557.396 401.757 558.285L416.502 583.707C417.6 585.642 419.744 586.793 421.94 586.688L455.979 585.381C458.018 585.276 459.901 584.178 460.946 582.399L478.672 552.374C479.351 551.224 480.45 550.282 481.704 549.811L509.992 539.036C511.77 538.356 513.129 536.891 513.652 535.113L534.201 464.602C534.619 463.137 534.462 461.62 533.835 460.26L495.247 381.589C494.41 379.863 494.41 377.875 495.299 376.149L517.73 332.681C518.619 330.955 518.619 328.967 517.73 327.241L455.195 200.604C454.724 199.662 453.992 198.825 453.156 198.25L389.365 155.724C388.685 155.253 387.901 154.939 387.064 154.782L312.659 141.391C310.672 141.025 309.051 139.717 308.215 137.887L272.712 57.9079C272.084 56.4955 272.032 54.874 272.555 53.4094V53.514Z" fill="#475E69" stroke="#22333B" stroke-width="4.72543" stroke-miterlimit="10"/>
<path fill="currentColor" d="M390.776 155.043H411.273C415.09 155.043 418.227 151.905 418.227 148.086V84.375C418.227 82.2304 419.221 80.2427 420.894 78.8827L475.168 36.3041C476.057 35.6241 476.737 34.7348 477.207 33.741L482.697 21.8671C484.423 18.1009 489.077 16.6886 492.632 18.8332L560.344 60.2088C564.998 63.0334 564.736 69.938 559.821 72.3965L538.645 82.9627C536.292 84.1658 534.776 86.572 534.776 89.1874V97.7135C534.776 100.015 535.926 102.212 537.861 103.52L552.031 112.987C553.076 113.72 553.965 114.714 554.488 115.864L562.488 133.178C562.906 134.068 563.534 134.904 564.266 135.532L614.2 178.163C615.769 179.471 616.658 181.406 616.658 183.446V214.465C616.658 216.714 617.756 218.859 619.586 220.166L657.39 246.739C658.54 247.576 659.952 247.994 661.416 247.994H693.207C697.023 247.994 700.161 251.133 700.161 254.951V291.671C700.161 293.921 701.259 296.013 703.089 297.321L731.219 317.407C732.527 318.348 733.52 319.761 733.886 321.33L743.873 359.776C744.134 360.875 744.71 361.868 745.442 362.705L804.997 428.247C806.461 429.816 807.089 432.013 806.723 434.106L800.134 472.238C799.664 474.801 800.709 477.417 802.853 478.986L872.186 530.614C872.971 531.189 873.389 532.183 873.232 533.177L864.343 592.599C864.134 593.906 864.343 595.214 864.866 596.417L887.088 646.79C887.454 647.679 887.663 648.62 887.663 649.614V685.236C887.663 686.596 886.775 687.799 885.467 688.165L841.337 700.981C840.082 701.347 838.827 700.405 838.775 699.097L837.467 661.802C837.363 658.402 834.801 655.63 831.454 655.159L763.219 645.587C760.344 645.168 758.043 643.076 757.415 640.251L749.625 606.513C749.259 604.839 749.468 603.113 750.304 601.596L766.2 572.408C767.036 570.839 766.2 568.851 764.422 568.485L692.004 552.845C689.337 552.269 687.246 550.177 686.671 547.509L676.109 498.601C675.481 495.62 672.971 493.423 669.886 493.161L584.919 485.838C584.083 485.786 583.246 485.524 582.462 485.158L536.919 463.137C535.508 462.457 534.41 461.358 533.73 459.946L495.351 381.745C494.358 379.758 494.41 377.456 495.403 375.469L517.416 332.838C518.41 330.85 518.462 328.548 517.469 326.561L455.247 200.603C454.724 199.505 453.887 198.563 452.894 197.883L390.358 156.141C389.73 155.723 390.044 154.781 390.776 154.781V155.043Z" fill="#30444E" stroke="#22333B" stroke-width="4.72543" stroke-miterlimit="10"/>
<path  fill="currentColor" d="M1085.31 393.044H1096.92C1102.3 393.044 1106.69 397.438 1106.69 402.826V437.14C1106.69 439.598 1109 441.429 1111.35 440.853L1137.39 434.943C1139.95 434.367 1142.56 434.838 1144.76 436.198L1190.77 465.386C1194.01 467.426 1193.6 472.238 1190.04 473.703L1174.3 480.241C1171.27 481.497 1170.43 485.367 1172.68 487.774L1187.01 503.1C1189 505.244 1189.94 508.174 1189.57 511.051L1181.62 570.629C1181.1 574.709 1183.14 578.685 1186.75 580.568L1205.99 590.663C1210.43 592.965 1215.87 591.605 1218.64 587.42L1240.03 555.303C1241.13 553.682 1243.43 553.42 1244.84 554.78L1270.3 578.946C1271.45 579.992 1272.81 580.777 1274.28 581.248L1313.81 592.703C1317.99 593.906 1320.86 597.725 1320.86 602.066V621.473C1320.86 625.343 1323.16 628.848 1326.72 630.417L1357.73 644.07C1359.4 644.802 1360.81 646.005 1361.86 647.47L1379.74 673.624C1380.42 674.617 1380.89 675.716 1381.2 676.919L1385.96 697.162C1386.64 700.144 1388.73 702.654 1391.56 703.858L1434.64 722.741C1436.42 723.525 1437.62 725.147 1437.88 727.03L1446.46 788.439C1446.77 790.584 1446.35 792.729 1445.26 794.612L1419.95 839.178C1419.01 840.8 1418.59 842.683 1418.69 844.566L1422.93 895.095C1423.03 896.403 1421.67 897.292 1420.52 896.664L1377.81 873.963C1373.94 871.923 1369.23 872.655 1366.2 875.794L1285.36 959.486C1282.96 961.945 1279.45 962.991 1276.11 962.206L1232.24 951.954C1229.31 951.274 1226.22 951.954 1223.87 953.889L1192.29 979.363C1189.94 981.299 1186.8 981.979 1183.87 981.246L1132.47 968.745C1131.01 968.379 1129.49 968.379 1128.03 968.745L1069.68 981.874C1068.32 982.188 1066.96 981.351 1066.54 980.043L1054.88 939.243C1054.72 938.668 1054.62 938.04 1054.56 937.412L1047.09 852.046C1046.88 849.744 1045.88 847.6 1044.26 845.978L1004.47 806.172C1002.33 804.027 1001.34 801.046 1001.7 798.064L1006.98 754.649C1007.3 752.19 1006.62 749.679 1005.15 747.639L978.12 711.128C976.761 709.245 974.722 707.938 972.473 707.415L889.911 688.217C888.656 687.904 887.768 686.805 887.768 685.55V650.399C887.768 649.039 887.506 647.679 886.931 646.476L865.284 597.359C864.552 595.685 864.291 593.802 864.552 591.971L873.284 533.805C873.493 532.549 874.33 531.451 875.532 531.032L921.388 513.509C924.892 512.149 927.349 508.906 927.663 505.14L931.428 455.97C931.689 452.518 934.565 449.85 938.016 449.85H972.525C974.722 449.85 976.761 448.804 978.016 447.026L989.362 431.177C990.826 429.137 993.388 428.247 995.793 428.927L1020.94 436.093C1023.24 436.773 1025.7 435.675 1026.75 433.53L1037.36 412.293C1038.46 410.096 1040.39 408.37 1042.7 407.481L1077.99 394.404C1080.39 393.515 1082.9 393.044 1085.47 393.044H1085.31Z" fill="#30444E" stroke="#22333B" stroke-width="4.72543" stroke-miterlimit="10"/>
<path fill="currentColor" d="M547.43 781.43V731.894C547.43 729.906 546.384 728.076 544.658 727.03L520.449 712.488C517.887 710.971 516.946 707.676 518.306 705.06L544.658 653.589C546.122 650.712 544.92 647.155 541.939 645.848L497.966 625.866C496.345 625.134 495.142 623.617 494.776 621.891L480.083 552.792C479.822 551.536 480.502 550.281 481.704 549.81L510.044 538.983C511.717 538.355 512.972 536.995 513.495 535.269L532.894 468.785C533.887 465.438 537.652 463.764 540.789 465.281L582.671 485.524C583.299 485.838 583.979 485.995 584.658 486.047L670.828 493.475C673.285 493.684 675.377 495.515 675.9 497.921L686.828 548.555C687.298 550.752 689.024 552.426 691.168 552.896L764.37 568.693C766.148 569.06 767.089 571.047 766.2 572.669L750.096 602.223C749.416 603.426 749.259 604.838 749.573 606.198L757.677 641.245C758.2 643.546 760.083 645.272 762.435 645.586L831.612 655.263C834.906 655.734 837.416 658.506 837.52 661.854L838.827 700.457C838.827 701.294 838.67 702.183 838.357 702.968L807.925 771.491C807.559 772.276 807.403 773.113 807.455 773.95L808.867 820.974C808.919 823.224 807.664 825.264 805.677 826.258L762.435 847.181C760.971 847.861 759.298 847.913 757.834 847.338L667.691 810.67C667.377 810.565 667.115 810.461 666.802 810.408L549.887 784.254C548.528 783.94 547.534 782.737 547.534 781.325L547.43 781.43Z" fill="#30444E" stroke="#22333B" stroke-width="4.72543" stroke-miterlimit="10"/>
<path  fill="currentColor" d="M625.128 980.043L660.265 970.104C670.2 967.332 676.004 957.08 673.337 947.089L660.108 897.396C659.533 895.252 659.324 893.002 659.533 890.753L666.801 813.494C666.958 811.821 665.86 810.304 664.239 809.937L550.044 784.411C548.318 784.045 546.54 784.411 545.128 785.457L527.455 798.744C524.004 801.307 519.821 802.667 515.482 802.51L433.965 799.685C431.979 799.633 430.044 800.574 428.946 802.248L410.122 830.181C405.521 837.033 405.887 846.03 411.011 852.464C420.841 864.808 412.109 883.064 396.319 883.064H395.534C386.645 883.064 379.011 889.236 377.129 897.919L364.005 958.753C363.325 961.84 361.913 964.664 359.874 967.07L327.404 1004.99C325.992 1006.67 325.365 1008.81 325.678 1010.96L332.057 1055.68C332.685 1060.23 334.985 1064.36 338.436 1067.34L359.561 1085.44C363.744 1089 366.149 1094.23 366.149 1099.78V1105.79C366.149 1111.49 368.711 1116.88 373.155 1120.44L403.9 1145.28C405.992 1146.96 407.717 1149.1 408.92 1151.51L425.024 1183.68C426.488 1186.66 429.887 1188.18 433.129 1187.29L466.541 1178.19C473.599 1176.25 477.625 1168.77 475.325 1161.81L470.41 1147.06C466.907 1136.5 473.233 1125.2 484.109 1122.74L510.776 1116.67C516.004 1115.47 520.449 1112.12 523.063 1107.46L531.22 1092.71C533.468 1088.63 537.129 1085.55 541.521 1084.03L568.03 1074.82C572.893 1073.15 576.867 1069.54 579.011 1064.83L612.998 990.295C615.298 985.274 619.69 981.507 625.024 979.99L625.128 980.043Z" fill="#30444E" stroke="#22333B" stroke-width="4.72543" stroke-miterlimit="10"/>
<path fill="currentColor" d="M343.718 677.181L371.953 732.261C373.313 734.876 376.032 736.55 379.012 736.55H410.385C414.097 736.55 417.287 739.113 418.123 742.723L430.515 797.75C430.777 798.849 431.718 799.634 432.816 799.634L519.508 802.615C521.339 802.667 523.064 802.144 524.528 801.046L546.593 784.464C547.168 784.046 547.482 783.366 547.482 782.686V731.999C547.482 729.907 546.384 727.972 544.606 726.926L520.293 712.332C517.835 710.867 516.999 707.781 518.254 705.27L544.92 653.224C546.28 650.556 545.129 647.261 542.41 646.058L499.064 626.338C496.763 625.291 495.143 623.251 494.62 620.793L480.554 554.623C480.241 553.211 478.358 552.897 477.626 554.153L461.417 581.562C460.058 583.864 457.6 585.328 454.933 585.433L423.038 586.636C420.11 586.74 417.339 585.224 415.875 582.713L401.966 558.651C401.287 557.5 400.345 556.506 399.195 555.826L363.378 534.433C359.404 532.079 354.28 533.596 352.241 537.676L339.274 563.62C337.601 567.02 333.731 568.694 330.123 567.7L286.411 555.774C285.104 555.408 283.849 554.728 282.908 553.734L258.751 529.568C257.026 527.842 254.62 527.005 252.163 527.319L236.634 529.254C233.183 529.673 230.411 532.34 229.836 535.793L224.869 565.608C224.607 567.073 224.817 568.537 225.339 569.897L243.954 615.771C244.634 617.393 245.784 618.753 247.3 619.642L340.633 673.833C341.94 674.618 342.986 675.716 343.718 677.076V677.181Z" fill="#30444E" stroke="#22333B" stroke-width="4.72543" stroke-miterlimit="10"/>
<path fill="currentColor" d="M124.163 686.805L157.104 607.192C157.941 605.205 159.091 603.374 160.607 601.857L206.673 554.414C209.339 551.641 213.888 552.06 216.032 555.251L223.509 566.497C224.137 567.438 224.659 568.485 225.13 569.531L243.901 615.771C244.581 617.445 245.783 618.857 247.352 619.746L338.28 672.577C341.103 674.199 343.352 676.605 344.868 679.534L371.482 731.476C373.103 734.614 376.293 736.55 379.796 736.55H410.75C414.149 736.55 417.129 738.904 417.861 742.251L430.306 797.593C430.567 798.848 430.306 800.209 429.626 801.307L409.391 831.384C405.26 837.556 405.574 845.664 410.227 851.47L413.522 855.603C419.064 865.175 411.848 881.913 400.293 883.169H394.123C386.123 883.169 379.221 888.766 377.548 896.56L364.005 959.329C363.43 962.101 362.123 964.665 360.293 966.809L328.241 1004.21C326.62 1006.14 323.744 1006.41 321.757 1004.84L284.424 974.969C280.398 971.726 278.045 966.861 278.045 961.735V931.292C278.045 926.375 274.28 922.243 269.365 921.824L234.019 918.686C228.11 918.163 222.882 914.554 220.267 909.218L199.509 866.535C197.574 862.56 192.973 860.624 188.79 862.089L154.281 874.015C151.771 874.904 149.47 876.369 147.588 878.252L106.96 920.36C106.542 920.831 106.124 921.301 105.758 921.772L80.3984 954.621C79.8233 955.354 79.1958 956.034 78.5161 956.661L64.3462 969.843C60.0586 973.818 54.0456 975.283 48.4508 973.818L42.124 972.145C36.9476 970.785 32.7123 967.018 30.7254 961.997L3.48365 893.16C1.75816 888.818 1.91502 884.006 3.84966 879.821L26.281 831.175C28.111 827.199 31.4574 824.061 35.5358 822.492L53.5227 815.482C55.8756 814.541 57.3397 812.187 57.1828 809.676L51.7972 742.461C51.4312 737.805 52.9998 733.202 56.1371 729.697L77.1566 706.473C79.771 703.596 83.2219 701.713 87.0389 701.085L111.143 697.214C116.947 696.273 121.862 692.402 124.163 686.962V686.805Z" fill="#475E69" stroke="#22333B" stroke-width="4.72543" stroke-miterlimit="10"/>
<path fill="currentColor" d="M673.495 1015.93L622.253 985.692C620.162 984.489 620.58 981.351 622.88 980.671L659.952 970.209C670.044 967.384 676.004 956.923 673.286 946.775L660.161 897.449C659.586 895.252 659.377 892.95 659.586 890.701L666.854 813.652C667.011 812.135 668.58 811.141 669.991 811.769L758.043 847.599C759.351 848.122 760.815 848.07 762.07 847.495L806.2 826.153C807.873 825.369 808.919 823.642 808.867 821.812L807.507 776.094C807.455 773.95 807.873 771.805 808.71 769.87L837.991 703.91C838.566 702.654 839.664 701.713 840.971 701.294L885.311 688.426C886.88 687.956 888.5 687.903 890.121 688.322L972.579 707.467C974.775 707.99 976.657 709.245 978.017 711.023L1005.73 748.424C1006.88 749.941 1007.35 751.824 1007.14 753.707L1001.75 798.116C1001.39 801.045 1002.43 804.027 1004.53 806.119L1045.05 846.658C1046.2 847.809 1046.93 849.378 1047.09 850.999L1054.57 936.418C1054.67 937.621 1054.88 938.824 1055.25 940.027L1066.54 979.625C1067.01 981.298 1066.38 983.025 1064.97 984.018L1023.4 1012.11C1017.49 1016.14 1014.25 1023.09 1015.09 1030.21L1025.39 1120.18C1026.02 1125.72 1024.19 1131.32 1020.42 1135.4L989.99 1168.3C988.317 1170.08 985.546 1170.34 983.611 1168.87L961.912 1152.61C957.834 1149.57 952.709 1148.27 947.69 1148.95L935.716 1150.67C927.768 1151.82 919.978 1147.9 916.108 1140.84L906.121 1122.37C903.507 1117.56 898.958 1114.06 893.572 1112.8L713.599 1071.01C708.213 1069.75 703.612 1066.19 700.998 1061.33L680.867 1023.41C679.194 1020.27 676.736 1017.65 673.652 1015.87L673.495 1015.93Z" fill="#96A7AF" stroke="#22333B" stroke-width="4.72543" stroke-miterlimit="10"/>
<path fill="currentColor"  d="M1019.64 1136.23L989.153 1169.14C987.794 1170.6 987.428 1172.69 988.16 1174.52L1009.39 1227.04C1012.11 1233.68 1017.91 1238.6 1024.97 1240.01L1060.53 1247.34C1064.92 1248.23 1069.47 1247.75 1073.6 1245.92L1118.83 1225.84C1122.22 1224.32 1125.99 1223.75 1129.7 1224.11L1160.92 1227.25C1167.45 1227.93 1173.36 1231.54 1176.87 1237.08L1190.3 1258.11C1195.17 1265.75 1204.37 1269.51 1213.2 1267.47L1256.39 1257.59C1263.24 1256.02 1270.46 1257.9 1275.69 1262.66L1301.41 1286.15C1302.88 1287.51 1304.5 1288.61 1306.28 1289.5L1340.05 1306.39C1342.3 1307.49 1345.02 1306.18 1345.44 1303.67L1353.07 1260.47C1353.7 1256.91 1355.22 1253.61 1357.47 1250.79L1398.15 1199.89L1445.36 1141.99C1446.41 1140.68 1447.66 1139.53 1448.97 1138.48L1503.92 1096.53C1505.39 1095.38 1505.44 1093.18 1504.03 1091.98L1452.94 1048.93C1449.07 1045.69 1444.16 1043.86 1439.09 1043.86H1424.18C1413.62 1043.86 1407.24 1032.14 1413 1023.25L1427.17 1001.28C1429.78 997.2 1430.98 992.388 1430.51 987.575L1423.4 899.855C1423.3 898.756 1422.67 897.763 1421.67 897.239L1377.91 873.962C1374.04 871.922 1369.28 872.655 1366.2 875.793L1285.57 959.277C1283.06 961.84 1279.4 962.938 1275.9 962.101L1231.66 951.744C1229.1 951.169 1226.43 951.744 1224.39 953.418L1191.92 979.624C1189.78 981.351 1187.01 981.978 1184.34 981.298L1135.14 969.32C1131.95 968.535 1128.55 968.483 1125.36 969.215L1071.19 981.403C1068.58 981.978 1066.07 983.077 1063.87 984.594L1024.45 1011.27C1017.81 1015.77 1014.25 1023.56 1015.14 1031.51L1025.13 1119.08C1025.86 1125.3 1023.82 1131.53 1019.53 1136.13L1019.64 1136.23Z" fill="#96A7AF" stroke="#22333B" stroke-width="4.72543" stroke-miterlimit="10"/>
<path fill="currentColor" d="M1363.06 1340.23L1345.81 1310.73C1345.02 1309.37 1344.71 1307.75 1344.97 1306.18L1352.71 1262.35C1353.54 1257.54 1355.58 1253.04 1358.67 1249.22L1444.79 1142.67C1446.25 1140.89 1447.87 1139.27 1449.7 1137.86L1505.33 1095.38C1506.22 1094.7 1507.48 1094.65 1508.42 1095.22L1559.66 1125.72C1563.01 1127.71 1567.19 1127.76 1570.59 1125.77L1671.5 1067.24C1672.76 1066.51 1674.38 1066.98 1675.06 1068.23L1707.95 1128.34C1709.31 1130.85 1711.03 1133.1 1713.07 1135.08L1778.07 1198.64C1778.85 1199.37 1779.16 1200.47 1778.95 1201.57L1764.11 1278.93C1763.74 1280.81 1762.9 1282.59 1761.65 1284.06L1703.5 1352.63C1702.56 1353.73 1701.52 1354.78 1700.42 1355.77L1621.47 1424.4C1612.21 1432.45 1609.07 1445.48 1613.62 1456.88L1628 1492.82C1630.09 1498.1 1630.62 1503.91 1629.47 1509.45L1626.64 1522.89C1625.54 1528.12 1623.03 1532.94 1619.37 1536.76L1598.82 1558.46C1597.57 1559.82 1595.48 1559.98 1594.01 1558.93L1563.16 1536.86C1556.42 1532.05 1547.9 1530.37 1539.84 1532.26L1504.13 1540.68C1500.73 1541.46 1497.23 1541.67 1493.83 1541.2L1477.2 1539.06C1468.16 1537.85 1460.16 1532.47 1455.77 1524.46L1453.1 1519.6C1445.41 1505.74 1428 1500.72 1414.09 1508.3L1393.07 1519.76C1389.2 1521.85 1385.91 1524.83 1383.35 1528.39L1364.94 1554.38C1362.38 1557.99 1357.52 1558.93 1353.81 1556.63L1337.39 1546.38C1322.8 1537.28 1319.4 1517.51 1330.12 1504.01L1343.09 1487.69C1349.05 1480.21 1350.88 1470.27 1348 1461.12L1338.96 1432.24C1336.6 1424.76 1337.39 1416.66 1341.15 1409.75L1363.64 1368.64C1368.5 1359.75 1368.34 1348.97 1363.22 1340.23H1363.06Z" fill="#96A7AF" stroke="#22333B" stroke-width="4.72543" stroke-miterlimit="10"/>
<path fill="currentColor" d="M1819.95 1393.28L1764.58 1283.85C1764.1 1282.91 1762.8 1282.75 1762.12 1283.53L1703.5 1352.68C1702.56 1353.78 1701.57 1354.83 1700.47 1355.77L1621.26 1424.61C1612.11 1432.56 1609.02 1445.37 1613.52 1456.62L1628 1492.92C1630.09 1498.15 1630.56 1503.85 1629.41 1509.35L1626.54 1523C1625.44 1528.13 1622.98 1532.89 1619.37 1536.7L1601.96 1555.12C1598.41 1558.83 1595.95 1563.49 1594.85 1568.51L1589.41 1592.88C1588.21 1598.27 1592.29 1603.4 1597.83 1603.4H1712.39C1716.99 1603.4 1721.54 1604.49 1725.62 1606.69L1767.14 1628.56C1774.09 1632.22 1782.61 1630.13 1787.11 1623.69L1793.59 1614.38C1804.47 1598.74 1827.37 1598.06 1839.19 1613.02L1851.79 1629.03C1858.48 1637.5 1869.41 1641.48 1879.97 1639.23L1942.3 1626.05C1943.87 1625.73 1945.44 1625.52 1947.06 1625.47L1966.88 1624.69C1977.44 1624.27 1986.85 1618.04 1991.4 1608.47L2012.31 1564.43C2013.41 1562.18 2013.72 1559.61 2013.31 1557.16L2004.47 1507.46C2002.74 1497.63 1993.7 1490.78 1983.76 1491.77L1893.46 1500.56C1889.86 1500.93 1886.2 1500.56 1882.69 1499.51L1815.45 1479.69C1803.27 1476.08 1797.41 1462.22 1803.27 1450.97L1819.74 1419.53C1823.97 1411.37 1824.08 1401.7 1819.9 1393.48L1819.95 1393.28Z" fill="#30444E" stroke="#22333B" stroke-width="4.72543" stroke-miterlimit="10"/>
<path fill="currentColor" d="M2150.25 1515.68L2131.69 1520.33C2128.86 1521.01 2125.93 1521.12 2123.11 1520.59L2104.5 1517.04C2094.3 1515.1 2084.31 1521.27 2081.54 1531.26C2079.71 1537.91 2074.54 1543.14 2067.95 1545.02L2020.1 1559.04C2016.86 1559.98 2013.46 1557.89 2012.89 1554.54L2004.63 1507.99C2002.8 1497.73 1993.44 1490.62 1983.09 1491.67L1891.84 1500.56C1889.28 1500.82 1886.72 1500.56 1884.26 1499.83L1815.14 1479.43C1803.11 1475.87 1797.31 1462.22 1803.11 1451.08L1819.58 1419.59C1823.92 1411.27 1823.97 1401.38 1819.79 1393.01L1764.63 1284C1763.95 1282.59 1763.69 1281.02 1764 1279.51L1778.85 1202.35C1779.06 1201.25 1780.37 1200.78 1781.2 1201.51L1837.1 1249.01C1840.5 1251.89 1844.73 1253.56 1849.18 1253.72L1994.54 1259.52C1998.04 1259.68 2001.39 1260.73 2004.37 1262.56L2079.56 1309.9C2083.06 1312.09 2087.14 1313.14 2091.27 1312.93L2163.74 1308.85C2166.82 1308.69 2169.86 1309.22 2172.68 1310.42L2230.4 1335.16C2233.12 1336.31 2236.1 1336.89 2239.03 1336.73L2295.14 1334.48C2305.44 1334.06 2314.33 1341.6 2315.69 1351.8L2321.65 1397.3C2322.38 1402.95 2320.65 1408.65 2316.89 1413L2287.29 1446.89C2279.97 1455.26 2280.97 1468.02 2289.44 1475.19L2360.08 1534.77C2369.96 1543.09 2369.38 1558.52 2358.93 1566.1L2310.56 1601.2C2303.76 1606.17 2294.56 1606.27 2287.61 1601.51L2166.35 1518.4C2161.65 1515.15 2155.79 1514.11 2150.25 1515.52V1515.68Z" fill="#30444E" stroke="#22333B" stroke-width="4.72543" stroke-miterlimit="10"/>
<path fill="currentColor" d="M2259.37 1248.75H2294.04C2302.51 1248.75 2309.04 1241.22 2307.79 1232.79L2297.33 1161.87C2296.5 1156.27 2299.16 1150.72 2304.02 1147.85L2327.82 1133.78C2328.91 1133.15 2328.7 1131.53 2327.5 1131.11L2283.68 1116.93C2279.5 1115.57 2274.95 1116.31 2271.34 1118.82L2252.31 1132.26C2245.41 1137.18 2235.74 1134.77 2231.92 1127.24L2211.63 1087.64C2209.23 1082.99 2204.47 1080.06 2199.24 1080.06H2129.65C2117.1 1080.06 2106.95 1069.86 2106.95 1057.35V1053.43C2106.95 1048.46 2104.29 1043.86 2100 1041.4L2081.49 1030.68C2075.69 1027.33 2068.37 1028.58 2064.03 1033.61L2047.4 1052.8C2041.59 1059.5 2031.03 1059.13 2025.75 1052.02L1915.69 904.72C1915.16 904.04 1914.27 903.726 1913.44 904.04L1864.81 920.726C1861.52 921.877 1857.91 921.72 1854.72 920.308L1773.78 882.541L1764.84 969.791C1764.16 976.905 1758.14 982.345 1750.98 982.345H1723.16C1718.98 982.345 1715.16 984.699 1713.28 988.412L1674.59 1064.42C1674.12 1065.36 1674.12 1066.4 1674.59 1067.35L1709.05 1130.27C1709.73 1131.47 1710.56 1132.57 1711.5 1133.57L1779.01 1199.53C1779.01 1199.53 1779.48 1199.95 1779.74 1200.15L1838.72 1250.32C1841.07 1252.36 1844.05 1253.51 1847.19 1253.61L1996.21 1259.58C1998.67 1259.68 2001.02 1260.41 2003.06 1261.72L2081.23 1310.94C2083.69 1312.46 2086.56 1313.24 2089.44 1313.04L2164.57 1308.8C2167.14 1308.64 2169.59 1307.8 2171.69 1306.34L2251.53 1251.15C2253.83 1249.53 2256.6 1248.7 2259.42 1248.7L2259.37 1248.75Z" fill="#475E69" stroke="#22333B" stroke-width="4.72543" stroke-miterlimit="10"/>
<path fill="currentColor" d="M1910.35 826.676L1914.69 901.738C1914.75 902.993 1915.22 904.144 1915.95 905.138L2025.86 1052.23C2031.14 1059.29 2041.54 1059.66 2047.29 1053.01L2063.97 1033.76C2068.37 1028.69 2075.79 1027.43 2081.59 1030.78L2100.1 1041.45C2104.39 1043.91 2107.01 1048.46 2107.01 1053.43V1058.14C2107.01 1070.27 2116.84 1080.11 2128.97 1080.11H2200.29C2204.89 1080.11 2209.12 1082.67 2211.27 1086.8L2231.87 1126.98C2235.84 1134.66 2245.67 1137.07 2252.73 1132.1L2271.97 1118.5C2275.21 1116.2 2279.4 1115.57 2283.21 1116.78L2327.29 1131C2329.28 1131.63 2331.37 1130.69 2332.26 1128.81L2349.93 1089.89C2352.76 1083.72 2352.55 1076.55 2349.36 1070.54L2341.2 1055.05C2339.48 1051.81 2338.64 1048.2 2338.69 1044.54L2340.1 933.75C2340.16 928.467 2338.33 923.393 2334.98 919.365L2305.54 884.267C2301.57 879.507 2299.74 873.282 2300.63 867.11L2307.42 818.202C2308.26 812.344 2306.64 806.38 2303.03 801.673L2291.53 786.87C2288.39 782.842 2286.77 777.82 2286.93 772.746L2287.92 739.165C2288.13 731.632 2284.47 724.519 2278.25 720.282L2230.82 688.269C2227.22 685.811 2222.93 684.503 2218.54 684.503H2209.8C2200.23 684.503 2191.76 678.331 2188.89 669.229L2133.36 495.515C2132.68 493.37 2132.31 491.068 2132.31 488.819V403.191C2132.31 393.41 2125.83 384.779 2116.42 382.059L2044.63 361.345C2042.07 360.613 2039.5 362.653 2039.71 365.32L2043.27 423.801C2043.79 431.961 2039.71 439.754 2032.71 443.939L2011.42 456.807C2005.67 460.259 2001.86 466.17 2000.97 472.813L1985.65 591.552C1984.76 598.457 1980.63 604.577 1974.51 607.977L1953.18 619.85C1946.12 623.774 1941.78 631.254 1941.88 639.361L1943.24 736.759C1943.24 739.74 1942.72 742.669 1941.57 745.442L1912.13 816.999C1910.88 820.033 1910.3 823.328 1910.51 826.624L1910.35 826.676Z" fill="#30444E" stroke="#22333B" stroke-width="4.72543" stroke-miterlimit="10"/>
<path fill="currentColor" d="M1697.13 429.816L1819.9 356.69C1823.19 354.702 1825.8 351.773 1827.43 348.268L1847.66 303.283C1850.54 296.954 1858.64 295.071 1863.97 299.517L1903.24 332.262C1907.11 335.505 1912.81 335.296 1916.47 331.843L1937.96 311.496C1939.22 310.293 1940.99 309.822 1942.67 310.24L1962.48 315.21C1964.26 315.628 1965.99 316.36 1967.56 317.302L2035.53 357.84C2037.83 359.2 2039.29 361.659 2039.45 364.327L2043.22 425.945C2043.63 432.902 2040.18 439.545 2034.17 443.155L2009.91 457.801C2004.99 460.782 2001.75 465.804 2001.02 471.453L1985.28 593.331C1984.5 599.241 1980.99 604.42 1975.76 607.349L1953.23 619.851C1946.01 623.878 1941.57 631.515 1941.67 639.78L1943.03 737.544C1943.03 740.107 1942.56 742.617 1941.62 744.971L1911.61 817.836C1910.51 820.452 1910.04 823.276 1910.25 826.049L1914.59 901.581C1914.64 902.836 1913.91 903.987 1912.71 904.406L1866.48 920.255C1862.04 921.772 1857.18 921.563 1852.89 919.68L1775.14 883.326C1774.25 882.907 1773.73 881.966 1773.83 881.024L1778.85 831.436C1779.11 829.187 1778.95 826.885 1778.38 824.689L1744.24 692.559C1743.45 689.42 1741.83 686.543 1739.58 684.242L1711.77 655.368C1706.75 650.137 1707.79 641.663 1713.91 637.792L1753.8 612.737C1759.03 609.441 1760.39 602.432 1756.73 597.463L1737.18 570.577C1733.88 566.026 1732.79 560.22 1734.2 554.727L1746.17 509.115C1747.11 505.61 1746.17 501.844 1743.61 499.229L1694.51 447.705C1689.44 442.37 1690.64 433.687 1696.97 429.921L1697.13 429.816Z" fill="#30444E" stroke="#22333B" stroke-width="4.72543" stroke-miterlimit="10"/>
<path fill="currentColor" d="M1696.76 705.897L1712.08 716.62C1717.73 720.543 1725.52 718.817 1728.86 712.802L1741.31 690.728C1741.94 689.629 1743.56 689.838 1743.87 691.094L1778.33 824.427C1778.96 826.781 1779.11 829.187 1778.85 831.593L1764.73 970.157C1764 977.113 1758.2 982.397 1751.19 982.397H1723.37C1718.98 982.397 1715.01 984.855 1713.02 988.726L1675.27 1062.85C1674.28 1064.83 1672.65 1066.51 1670.72 1067.61L1570.9 1125.51C1567.24 1127.6 1562.75 1127.6 1559.14 1125.46L1507.53 1094.75C1507.01 1094.44 1506.49 1094.07 1505.96 1093.66L1452.73 1048.78C1448.92 1045.58 1444.11 1043.81 1439.14 1043.81H1424.08C1413.52 1043.81 1407.14 1032.09 1412.89 1023.2L1427.11 1001.12C1429.73 997.095 1430.88 992.335 1430.51 987.575L1418.8 845.193C1418.59 842.839 1419.11 840.538 1420.26 838.498L1444.89 795.082C1446.15 792.833 1446.67 790.27 1446.3 787.707L1437.62 725.669C1437.47 724.571 1437.94 723.472 1438.83 722.792L1494.62 681.26C1497.28 679.272 1500.68 678.54 1503.92 679.22L1530.49 684.712C1537.7 686.229 1544.45 680.685 1544.45 673.309V635.124C1544.45 627.435 1551.77 621.838 1559.19 623.931L1613.41 638.943C1616.65 639.832 1619.32 642.081 1620.79 645.115L1651.16 708.46C1653.99 714.319 1661.05 716.725 1666.85 713.848L1684.73 704.903C1688.55 702.968 1693.1 703.334 1696.6 705.792L1696.76 705.897Z" fill="#30444E" stroke="#22333B" stroke-width="4.72543" stroke-miterlimit="10"/>
<path fill="currentColor" d="M1321.65 495.568L1246.3 549.183C1244.16 550.7 1243.9 553.839 1245.83 555.669L1270.09 578.685C1271.35 579.888 1272.92 580.777 1274.59 581.248L1312.97 592.389C1317.62 593.749 1320.86 598.039 1320.86 602.903V620.636C1320.86 624.977 1323.43 628.9 1327.4 630.679L1357.41 643.86C1359.3 644.697 1360.86 646.005 1362.01 647.679L1379.58 673.362C1380.37 674.461 1380.89 675.716 1381.2 677.024L1385.81 696.482C1386.59 699.83 1388.89 702.602 1392.08 704.014L1436.11 723.316C1436.94 723.682 1437.88 723.578 1438.62 723.002L1494.93 681.104C1497.44 679.221 1500.63 678.541 1503.66 679.168L1531.37 684.922C1538.17 686.334 1544.55 681.156 1544.55 674.199V634.236C1544.55 627.017 1551.45 621.734 1558.41 623.67L1613.78 638.996C1616.81 639.833 1619.37 641.977 1620.73 644.802L1651.58 709.088C1654.25 714.581 1660.89 716.882 1666.33 714.162L1685.2 704.695C1688.81 702.916 1693.1 703.23 1696.39 705.531L1711.97 716.411C1717.67 720.387 1725.57 718.608 1728.97 712.541L1741.67 690.048C1742.51 688.584 1742.25 686.753 1741.1 685.55L1711.45 654.74C1706.64 649.719 1707.63 641.559 1713.49 637.897L1753.6 612.685C1758.98 609.337 1760.34 602.119 1756.63 596.993L1736.81 569.74C1733.78 565.555 1732.73 560.168 1734.09 555.199L1746.22 509.168C1747.16 505.506 1746.22 501.583 1743.56 498.811L1694.2 446.973C1689.33 441.9 1690.48 433.635 1696.5 430.026L1821.93 355.278C1823.87 354.127 1825.39 352.401 1826.33 350.361L1847.35 303.598C1850.33 297.007 1858.75 295.019 1864.34 299.674L1902.51 331.478C1906.75 335.035 1913.02 334.825 1917.05 331.007L1937.8 311.339C1938.85 310.345 1938.69 308.567 1937.44 307.782L1899.32 283.773C1898.01 282.936 1896.92 281.89 1896.08 280.634L1850.9 213.523C1849.39 211.274 1847.09 209.653 1844.47 209.025L1785.6 194.326C1781.67 193.332 1777.54 194.588 1774.82 197.622L1727.14 250.505C1723.58 254.48 1717.67 255.265 1713.18 252.44L1681.12 232.145C1676.79 229.425 1671.14 230.053 1667.53 233.662L1633.54 267.662C1632.03 269.179 1630.98 271.114 1630.56 273.259L1619.58 328.182C1618.96 331.268 1617.02 333.988 1614.3 335.558L1601.18 343.038C1595.69 346.176 1594.01 353.29 1597.46 358.573L1610.8 378.764C1615.19 385.407 1611.22 394.352 1603.37 395.607L1563.53 401.884C1561.44 402.198 1559.45 403.139 1557.88 404.604L1511.66 446.764C1508.63 449.537 1504.34 450.374 1500.47 448.961L1471.71 438.29C1467.22 436.617 1462.2 438.081 1459.27 441.847L1429.31 480.607C1427.43 483.014 1424.71 484.531 1421.67 484.792L1326.93 493.528C1325 493.684 1323.17 494.364 1321.6 495.515L1321.65 495.568Z" fill="#475E69" stroke="#22333B" stroke-width="4.72543" stroke-miterlimit="10"/>
<path fill="currentColor" d="M655.35 194.483L667.847 144.424C668.422 142.227 670.043 140.397 672.187 139.612L706.749 126.797C709.468 125.803 711.298 123.187 711.298 120.31V80.0857C711.298 76.2672 714.383 73.1287 718.252 73.1287H744.134C746.278 73.1287 748.317 72.1349 749.625 70.4087L764.213 51.3686C766.409 48.544 770.383 47.8117 773.415 49.6948L790.879 60.6271C792.396 61.5687 793.494 63.0856 793.912 64.8118L808.343 122.56C808.762 124.181 809.755 125.646 811.167 126.587L862.409 161.738C863.507 162.523 864.866 162.941 866.225 162.941L946.853 164.458C948.369 164.458 949.885 165.034 951.036 165.975L978.8 188.206C980.055 189.2 981.571 189.723 983.14 189.723H994.434C997.519 189.723 1000.19 191.763 1001.07 194.692L1020.89 261.28C1021.36 262.902 1022.41 264.262 1023.87 265.203L1043.58 277.548C1045.62 278.803 1046.83 281.053 1046.83 283.406V315.837C1046.83 316.831 1047.04 317.825 1047.45 318.767L1065.07 356.951C1065.49 357.841 1065.7 358.834 1065.7 359.881V379.653C1065.7 382.112 1066.96 384.361 1069.05 385.616L1077.78 390.847C1079.24 391.736 1079.04 393.933 1077.41 394.561L1041.49 407.899C1039.82 408.527 1038.46 409.73 1037.68 411.299L1027.32 432.066C1025.81 435.047 1022.41 436.564 1019.22 435.622L996.369 429.084C993.545 428.299 990.513 429.346 988.839 431.699L978.016 446.869C976.709 448.699 974.617 449.798 972.369 449.798H938.225C934.617 449.798 931.585 452.57 931.323 456.179L927.402 506.866C927.193 509.534 925.467 511.835 922.957 512.829L875.167 531.084C874.121 531.503 872.918 531.346 872.029 530.666L802.853 479.143C800.762 477.573 799.716 474.958 800.187 472.395L806.775 434.21C807.141 432.118 806.513 429.921 805.049 428.352L745.442 362.81C744.71 361.973 744.134 360.979 743.873 359.881L733.886 321.434C733.468 319.865 732.527 318.453 731.219 317.511L703.089 297.425C701.259 296.117 700.161 294.025 700.161 291.776V255.003C700.161 251.185 697.076 248.046 693.206 248.046H661.363C659.952 248.046 658.54 247.628 657.39 246.791L619.586 220.166C617.756 218.859 616.658 216.766 616.658 214.517V183.917C616.658 182.348 618.383 181.406 619.69 182.295L644.736 198.615C648.71 201.231 654.095 199.138 655.246 194.483H655.35Z" fill="#3DD598"/>
<!-- (지역 이름)글씨 -->
<path d="M1555.21 862.551C1556.74 862.54 1558.12 862.839 1559.35 863.449C1560.6 864.048 1561.56 864.892 1562.26 865.981C1562.97 867.069 1563.33 868.3 1563.34 869.671C1563.33 871.054 1562.97 872.29 1562.26 873.379C1561.56 874.467 1560.6 875.317 1559.37 875.926C1558.14 876.525 1556.75 876.824 1555.21 876.824C1553.67 876.824 1552.29 876.52 1551.06 875.91C1549.83 875.3 1548.86 874.456 1548.15 873.379C1547.45 872.29 1547.11 871.054 1547.11 869.671C1547.11 868.3 1547.45 867.069 1548.15 865.981C1548.86 864.892 1549.83 864.048 1551.06 863.449C1552.3 862.839 1553.68 862.54 1555.21 862.551ZM1555.21 865.687C1554.35 865.687 1553.57 865.85 1552.89 866.176C1552.2 866.503 1551.66 866.971 1551.27 867.581C1550.89 868.18 1550.7 868.877 1550.7 869.671C1550.7 870.477 1550.89 871.185 1551.27 871.794C1551.66 872.393 1552.2 872.856 1552.89 873.183C1553.57 873.498 1554.35 873.656 1555.21 873.656C1556.08 873.656 1556.86 873.498 1557.54 873.183C1558.24 872.856 1558.78 872.393 1559.17 871.794C1559.58 871.185 1559.78 870.477 1559.78 869.671C1559.78 868.877 1559.58 868.18 1559.17 867.581C1558.78 866.971 1558.24 866.503 1557.54 866.176C1556.86 865.85 1556.08 865.687 1555.21 865.687ZM1570.23 890.053H1566.6V860.493H1570.23V890.053ZM1545.77 880.907C1549.38 880.907 1552.76 880.847 1555.89 880.728C1559.04 880.597 1562.02 880.33 1564.84 879.927L1565.14 882.573C1562.22 883.139 1559.25 883.499 1556.23 883.651C1553.23 883.803 1549.89 883.88 1546.22 883.88L1545.77 880.907ZM1585.35 864.739C1585.34 866.1 1585.6 867.385 1586.12 868.594C1586.64 869.802 1587.43 870.869 1588.47 871.794C1589.53 872.709 1590.81 873.406 1592.31 873.885L1590.35 876.726C1588.76 876.171 1587.4 875.376 1586.27 874.342C1585.15 873.308 1584.26 872.078 1583.62 870.651C1582.96 872.295 1582.01 873.722 1580.76 874.93C1579.52 876.128 1578.03 877.031 1576.27 877.641L1574.35 874.701C1575.94 874.179 1577.28 873.422 1578.38 872.431C1579.48 871.441 1580.31 870.297 1580.86 869.002C1581.42 867.706 1581.7 866.34 1581.7 864.903V862.094H1585.35V864.739ZM1599.27 877.87H1595.64V869.181H1589.76V866.209H1595.64V860.493H1599.27V877.87ZM1589.27 878.654C1591.35 878.654 1593.15 878.877 1594.66 879.323C1596.19 879.77 1597.35 880.423 1598.16 881.283C1598.96 882.132 1599.37 883.15 1599.37 884.337C1599.37 885.524 1598.96 886.542 1598.16 887.391C1597.35 888.24 1596.19 888.882 1594.68 889.318C1593.17 889.764 1591.36 889.987 1589.27 889.987C1587.19 889.987 1585.4 889.764 1583.88 889.318C1582.38 888.882 1581.23 888.24 1580.42 887.391C1579.63 886.542 1579.23 885.524 1579.25 884.337C1579.23 883.15 1579.63 882.132 1580.42 881.283C1581.23 880.423 1582.39 879.77 1583.9 879.323C1585.41 878.877 1587.2 878.654 1589.27 878.654ZM1589.27 881.463C1587.2 881.463 1585.61 881.713 1584.5 882.214C1583.39 882.704 1582.84 883.411 1582.84 884.337C1582.84 885.241 1583.39 885.937 1584.5 886.427C1585.63 886.906 1587.22 887.146 1589.27 887.146C1591.33 887.146 1592.92 886.901 1594.04 886.411C1595.17 885.921 1595.74 885.23 1595.74 884.337C1595.74 883.411 1595.18 882.704 1594.06 882.214C1592.94 881.713 1591.34 881.463 1589.27 881.463ZM1616.87 860.983C1619.05 860.983 1620.93 861.206 1622.52 861.653C1624.12 862.088 1625.35 862.725 1626.21 863.563C1627.07 864.402 1627.51 865.403 1627.52 866.568C1627.51 867.712 1627.07 868.697 1626.21 869.524C1625.35 870.352 1624.12 870.983 1622.52 871.419C1620.93 871.854 1619.05 872.067 1616.87 872.056C1614.72 872.067 1612.83 871.854 1611.22 871.419C1609.62 870.983 1608.39 870.352 1607.51 869.524C1606.65 868.697 1606.22 867.712 1606.22 866.568C1606.22 865.403 1606.65 864.402 1607.51 863.563C1608.39 862.725 1609.62 862.088 1611.22 861.653C1612.82 861.206 1614.71 860.983 1616.87 860.983ZM1616.87 863.759C1614.68 863.759 1612.99 864.004 1611.79 864.494C1610.6 864.984 1610 865.676 1610.01 866.568C1610 867.439 1610.59 868.109 1611.78 868.577C1612.97 869.045 1614.67 869.279 1616.87 869.279C1619.06 869.279 1620.75 869.045 1621.95 868.577C1623.16 868.109 1623.76 867.439 1623.76 866.568C1623.76 865.676 1623.16 864.984 1621.95 864.494C1620.74 864.004 1619.05 863.759 1616.87 863.759ZM1610.27 881.103H1623.37V878.425H1627.03V889.661H1606.68V878.425H1610.27V881.103ZM1623.37 886.721V883.88H1610.27V886.721H1623.37ZM1630.36 876.792H1603.45V873.918H1630.36V876.792Z" fill="currentTextColor"/>
<path d="M1212.6 1112.94H1185.69V1110H1197.28V1107.42H1189.18V1096.38H1192.78V1099.19H1205.51V1096.38H1209.11V1107.42H1200.94V1110H1212.6V1112.94ZM1199.11 1114.57C1201.24 1114.57 1203.06 1114.78 1204.58 1115.19C1206.12 1115.59 1207.29 1116.19 1208.11 1116.99C1208.94 1117.77 1209.36 1118.72 1209.37 1119.83C1209.36 1120.94 1208.94 1121.89 1208.11 1122.67C1207.29 1123.45 1206.12 1124.05 1204.58 1124.45C1203.06 1124.85 1201.24 1125.05 1199.11 1125.05C1196.96 1125.05 1195.11 1124.85 1193.58 1124.45C1192.04 1124.05 1190.87 1123.45 1190.07 1122.67C1189.26 1121.89 1188.86 1120.94 1188.86 1119.83C1188.86 1118.72 1189.26 1117.77 1190.07 1116.99C1190.88 1116.19 1192.06 1115.59 1193.59 1115.19C1195.13 1114.78 1196.97 1114.57 1199.11 1114.57ZM1199.11 1117.35C1194.69 1117.38 1192.48 1118.21 1192.48 1119.83C1192.48 1120.64 1193.04 1121.26 1194.16 1121.67C1195.3 1122.08 1196.95 1122.28 1199.11 1122.28C1201.24 1122.28 1202.86 1122.07 1203.98 1121.66C1205.1 1121.24 1205.67 1120.63 1205.68 1119.83C1205.65 1118.21 1203.46 1117.38 1199.11 1117.35ZM1205.51 1104.57V1101.96H1192.78V1104.57H1205.51ZM1241.9 1102.48H1237.88V1105.85H1241.9V1108.85H1237.88V1112.9H1234.26V1095.56H1237.88V1099.51H1241.9V1102.48ZM1222.89 1097.26C1224.39 1097.25 1225.75 1097.54 1226.96 1098.14C1228.17 1098.73 1229.11 1099.56 1229.8 1100.64C1230.5 1101.72 1230.85 1102.94 1230.86 1104.31C1230.85 1105.67 1230.5 1106.89 1229.8 1107.97C1229.11 1109.04 1228.17 1109.88 1226.96 1110.49C1225.75 1111.09 1224.39 1111.39 1222.89 1111.4C1221.38 1111.39 1220.01 1111.09 1218.79 1110.49C1217.58 1109.88 1216.63 1109.04 1215.93 1107.97C1215.25 1106.89 1214.91 1105.67 1214.92 1104.31C1214.91 1102.94 1215.25 1101.72 1215.93 1100.65C1216.63 1099.58 1217.58 1098.74 1218.79 1098.14C1220.01 1097.54 1221.38 1097.25 1222.89 1097.26ZM1222.89 1100.3C1222.04 1100.3 1221.28 1100.46 1220.6 1100.8C1219.94 1101.14 1219.42 1101.61 1219.04 1102.22C1218.66 1102.82 1218.47 1103.52 1218.48 1104.31C1218.47 1105.11 1218.65 1105.81 1219.02 1106.42C1219.4 1107.02 1219.93 1107.49 1220.6 1107.82C1221.28 1108.15 1222.04 1108.32 1222.89 1108.33C1223.73 1108.32 1224.48 1108.15 1225.14 1107.82C1225.82 1107.49 1226.35 1107.02 1226.73 1106.42C1227.11 1105.81 1227.3 1105.11 1227.3 1104.31C1227.3 1103.52 1227.11 1102.82 1226.73 1102.22C1226.35 1101.61 1225.82 1101.14 1225.14 1100.8C1224.48 1100.46 1223.73 1100.3 1222.89 1100.3ZM1228.28 1113.59C1230.28 1113.59 1232.03 1113.82 1233.51 1114.28C1235 1114.73 1236.15 1115.4 1236.95 1116.27C1237.76 1117.13 1238.17 1118.15 1238.18 1119.34C1238.17 1120.52 1237.76 1121.55 1236.95 1122.41C1236.15 1123.27 1235 1123.92 1233.51 1124.37C1232.03 1124.83 1230.28 1125.05 1228.28 1125.05C1226.26 1125.05 1224.49 1124.83 1222.97 1124.37C1221.47 1123.92 1220.31 1123.27 1219.49 1122.41C1218.69 1121.55 1218.29 1120.52 1218.29 1119.34C1218.29 1118.15 1218.69 1117.13 1219.51 1116.27C1220.33 1115.4 1221.49 1114.73 1222.99 1114.28C1224.49 1113.82 1226.26 1113.59 1228.28 1113.59ZM1228.28 1116.5C1226.24 1116.5 1224.67 1116.74 1223.56 1117.23C1222.46 1117.71 1221.91 1118.41 1221.91 1119.34C1221.91 1120.26 1222.46 1120.97 1223.56 1121.44C1224.66 1121.91 1226.23 1122.15 1228.28 1122.15C1230.32 1122.15 1231.87 1121.91 1232.95 1121.44C1234.04 1120.97 1234.58 1120.26 1234.58 1119.34C1234.58 1118.41 1234.04 1117.71 1232.95 1117.23C1231.87 1116.74 1230.32 1116.5 1228.28 1116.5ZM1258.66 1100.39H1264.6V1095.59H1268.23V1117.08H1264.6V1109.64H1258.66V1112.18H1244.77V1098.04H1258.66V1100.39ZM1248.4 1109.34H1255.06V1100.92H1248.4V1109.34ZM1268.88 1124.5H1248.76V1115.09H1252.45V1121.56H1268.88V1124.5ZM1264.6 1106.73V1103.37H1258.66V1106.73H1264.6Z" fill="currentTextColor"/>
<path d="M1111.38 702.29H1115.5V705.295H1111.38V715.225H1107.76V693.635H1111.38V702.29ZM1112.56 722.574H1092.47V712.971H1096.1V719.634H1112.56V722.574ZM1096.39 695.595C1097.87 695.595 1099.21 695.916 1100.42 696.558C1101.63 697.19 1102.58 698.071 1103.28 699.204C1103.99 700.336 1104.35 701.615 1104.36 703.042C1104.35 704.446 1103.99 705.714 1103.28 706.847C1102.58 707.968 1101.63 708.85 1100.41 709.492C1099.2 710.135 1097.86 710.456 1096.39 710.456C1094.91 710.456 1093.56 710.135 1092.34 709.492C1091.12 708.85 1090.16 707.968 1089.45 706.847C1088.75 705.714 1088.41 704.446 1088.42 703.042C1088.41 701.626 1088.75 700.352 1089.45 699.22C1090.16 698.077 1091.12 697.19 1092.34 696.558C1093.56 695.916 1094.91 695.595 1096.39 695.595ZM1096.39 698.763C1095.56 698.763 1094.81 698.942 1094.14 699.302C1093.46 699.65 1092.93 700.151 1092.54 700.804C1092.15 701.447 1091.97 702.192 1091.98 703.042C1091.97 703.869 1092.15 704.604 1092.54 705.246C1092.93 705.889 1093.46 706.384 1094.14 706.732C1094.81 707.081 1095.56 707.255 1096.39 707.255C1097.22 707.255 1097.96 707.081 1098.63 706.732C1099.3 706.384 1099.83 705.889 1100.21 705.246C1100.6 704.604 1100.8 703.869 1100.8 703.042C1100.8 702.192 1100.6 701.447 1100.21 700.804C1099.83 700.151 1099.3 699.65 1098.63 699.302C1097.96 698.942 1097.22 698.763 1096.39 698.763ZM1133.49 698.632H1130.88V707.01C1132.08 706.923 1133.13 706.82 1134.05 706.7V704.054H1138.1V701.506H1134.05V698.6H1138.1V693.635H1141.72V711.73H1138.1V706.961H1134.13L1134.28 709.378C1131.76 709.792 1129.07 710.07 1126.21 710.211C1123.36 710.353 1120.43 710.423 1117.42 710.423L1117.03 707.418C1118.47 707.418 1119.58 707.413 1120.36 707.402V698.632H1117.78V695.693H1133.49V698.632ZM1131.73 712.252C1133.83 712.252 1135.63 712.465 1137.14 712.889C1138.65 713.314 1139.81 713.935 1140.61 714.751C1141.42 715.568 1141.82 716.553 1141.82 717.707C1141.82 718.828 1141.42 719.797 1140.61 720.614C1139.81 721.431 1138.65 722.051 1137.14 722.476C1135.62 722.911 1133.82 723.129 1131.73 723.129C1129.65 723.129 1127.85 722.911 1126.34 722.476C1124.84 722.051 1123.68 721.431 1122.88 720.614C1122.08 719.797 1121.69 718.828 1121.7 717.707C1121.69 716.553 1122.08 715.568 1122.88 714.751C1123.67 713.935 1124.82 713.314 1126.32 712.889C1127.84 712.465 1129.64 712.252 1131.73 712.252ZM1131.73 715.029C1129.66 715.029 1128.07 715.257 1126.96 715.715C1125.85 716.172 1125.3 716.836 1125.3 717.707C1125.3 718.556 1125.85 719.204 1126.96 719.651C1128.07 720.097 1129.66 720.32 1131.73 720.32C1133.81 720.32 1135.4 720.097 1136.52 719.651C1137.64 719.204 1138.2 718.556 1138.2 717.707C1138.2 716.836 1137.64 716.172 1136.53 715.715C1135.42 715.257 1133.82 715.029 1131.73 715.029ZM1123.89 707.353C1124.65 707.331 1125.82 707.288 1127.39 707.222V698.632H1123.89V707.353ZM1161.06 698.469H1167.01V693.667H1170.63V715.159H1167.01V707.712H1161.06V710.26H1147.18V696.117H1161.06V698.469ZM1150.81 707.418H1157.47V698.991H1150.81V707.418ZM1171.28 722.574H1151.16V713.167H1154.86V719.634H1171.28V722.574ZM1167.01 704.805V701.441H1161.06V704.805H1167.01Z" fill="currentTextColor"/>
<path d="M846.105 945.67H842.447V916.11H846.105V945.67ZM826.736 925.909H833.889V918.527H837.482V938.713H823.111V918.527H826.736V925.909ZM833.889 935.741V928.751H826.736V935.741H833.889ZM873.738 924.766H877.853V927.771H873.738V937.7H870.112V916.11H873.738V924.766ZM874.913 945.049H854.826V935.447H858.452V942.11H874.913V945.049ZM858.745 918.07C860.226 918.07 861.571 918.391 862.779 919.034C863.988 919.665 864.94 920.547 865.637 921.679C866.345 922.812 866.704 924.091 866.715 925.517C866.704 926.922 866.345 928.19 865.637 929.322C864.94 930.444 863.982 931.326 862.763 931.968C861.554 932.61 860.215 932.932 858.745 932.932C857.265 932.932 855.915 932.61 854.695 931.968C853.476 931.326 852.512 930.444 851.805 929.322C851.108 928.19 850.765 926.922 850.776 925.517C850.765 924.102 851.108 922.828 851.805 921.696C852.512 920.553 853.476 919.665 854.695 919.034C855.915 918.391 857.265 918.07 858.745 918.07ZM858.745 921.238C857.918 921.238 857.167 921.418 856.492 921.777C855.817 922.126 855.283 922.627 854.891 923.28C854.51 923.922 854.325 924.668 854.336 925.517C854.325 926.345 854.51 927.08 854.891 927.722C855.283 928.364 855.817 928.86 856.492 929.208C857.167 929.556 857.918 929.731 858.745 929.731C859.573 929.731 860.319 929.556 860.983 929.208C861.658 928.86 862.186 928.364 862.567 927.722C862.959 927.08 863.155 926.345 863.155 925.517C863.155 924.668 862.959 923.922 862.567 923.28C862.186 922.627 861.658 922.126 860.983 921.777C860.319 921.418 859.573 921.238 858.745 921.238ZM894.511 920.944H900.455V916.143H904.081V937.635H900.455V930.188H894.511V932.736H880.629V918.593H894.511V920.944ZM884.255 929.894H890.918V921.467H884.255V929.894ZM904.734 945.049H884.614V935.643H888.305V942.11H904.734V945.049ZM900.455 927.281V923.917H894.511V927.281H900.455Z" fill="currentTextColor"/>
<path d="M620.258 367.529H624.373V370.534H620.258V380.463H616.632V358.873H620.258V367.529ZM621.434 387.812H601.346V378.209H604.972V384.873H621.434V387.812ZM605.266 360.833C606.747 360.833 608.091 361.154 609.3 361.797C610.508 362.428 611.461 363.31 612.158 364.442C612.865 365.574 613.225 366.854 613.236 368.28C613.225 369.685 612.865 370.953 612.158 372.085C611.461 373.207 610.503 374.089 609.283 374.731C608.075 375.373 606.736 375.694 605.266 375.694C603.785 375.694 602.435 375.373 601.216 374.731C599.996 374.089 599.033 373.207 598.325 372.085C597.628 370.953 597.285 369.685 597.296 368.28C597.285 366.865 597.628 365.591 598.325 364.459C599.033 363.315 599.996 362.428 601.216 361.797C602.435 361.154 603.785 360.833 605.266 360.833ZM605.266 364.001C604.438 364.001 603.687 364.181 603.012 364.54C602.337 364.889 601.804 365.389 601.412 366.043C601.031 366.685 600.846 367.431 600.856 368.28C600.846 369.107 601.031 369.842 601.412 370.485C601.804 371.127 602.337 371.622 603.012 371.971C603.687 372.319 604.438 372.493 605.266 372.493C606.093 372.493 606.839 372.319 607.503 371.971C608.178 371.622 608.706 371.127 609.087 370.485C609.479 369.842 609.675 369.107 609.675 368.28C609.675 367.431 609.479 366.685 609.087 366.043C608.706 365.389 608.178 364.889 607.503 364.54C606.839 364.181 606.093 364.001 605.266 364.001ZM636.426 365.961C636.415 367.725 636.693 369.456 637.259 371.154C637.836 372.842 638.669 374.355 639.758 375.694C640.846 377.034 642.131 378.057 643.612 378.765L641.391 381.672C639.823 380.877 638.462 379.745 637.308 378.275C636.165 376.805 635.272 375.106 634.629 373.179C633.965 375.237 633.029 377.055 631.821 378.634C630.623 380.202 629.197 381.399 627.542 382.227L625.321 379.32C626.856 378.59 628.184 377.529 629.306 376.135C630.438 374.731 631.298 373.147 631.886 371.383C632.485 369.608 632.79 367.801 632.8 365.961V361.258H636.426V365.961ZM649.001 370.436H653.541V373.539H649.001V388.4H645.375V358.873H649.001V370.436ZM669.938 363.707H675.882V358.906H679.508V380.398H675.882V372.951H669.938V375.498H656.056V361.356H669.938V363.707ZM659.682 372.657H666.345V364.23H659.682V372.657ZM680.161 387.812H660.041V378.405H663.732V384.873H680.161V387.812ZM675.882 370.044V366.68H669.938V370.044H675.882Z" fill="currentTextColor"/>
<path d="M846.138 316.449H842.48V294.892H846.138V316.449ZM846.954 323.798H826.606V314.391H830.264V320.859H846.954V323.798ZM832.55 299.399C832.55 300.793 832.817 302.121 833.35 303.384C833.895 304.647 834.7 305.769 835.767 306.748C836.834 307.717 838.125 308.458 839.638 308.97L837.776 311.844C836.121 311.267 834.695 310.418 833.497 309.296C832.3 308.175 831.369 306.846 830.705 305.311C830.03 306.966 829.077 308.403 827.847 309.623C826.627 310.842 825.168 311.757 823.47 312.366L821.576 309.492C823.132 308.948 824.45 308.158 825.528 307.124C826.616 306.079 827.433 304.892 827.977 303.564C828.522 302.236 828.794 300.847 828.794 299.399V296.525H832.55V299.399ZM866.944 299.857H864.331V308.235C865.528 308.147 866.584 308.044 867.499 307.924V305.279H871.549V302.731H867.499V299.824H871.549V294.859H875.175V312.954H871.549V308.186H867.581L867.728 310.603C865.213 311.016 862.523 311.294 859.66 311.436C856.807 311.577 853.879 311.648 850.874 311.648L850.482 308.643C851.919 308.643 853.03 308.637 853.813 308.627V299.857H851.233V296.917H866.944V299.857ZM865.18 313.477C867.281 313.477 869.083 313.689 870.586 314.114C872.099 314.538 873.259 315.159 874.064 315.976C874.87 316.792 875.273 317.777 875.273 318.932C875.273 320.053 874.87 321.022 874.064 321.839C873.259 322.655 872.099 323.276 870.586 323.7C869.072 324.136 867.27 324.354 865.18 324.354C863.1 324.354 861.304 324.136 859.791 323.7C858.288 323.276 857.134 322.655 856.328 321.839C855.534 321.022 855.142 320.053 855.153 318.932C855.142 317.777 855.534 316.792 856.328 315.976C857.123 315.159 858.272 314.538 859.774 314.114C861.288 313.689 863.09 313.477 865.18 313.477ZM865.18 316.253C863.111 316.253 861.522 316.482 860.411 316.939C859.301 317.396 858.745 318.061 858.745 318.932C858.745 319.781 859.301 320.429 860.411 320.875C861.522 321.321 863.111 321.545 865.18 321.545C867.259 321.545 868.855 321.321 869.965 320.875C871.086 320.429 871.647 319.781 871.647 318.932C871.647 318.061 871.092 317.396 869.981 316.939C868.871 316.482 867.27 316.253 865.18 316.253ZM857.341 308.578C858.103 308.556 859.268 308.512 860.836 308.447V299.857H857.341V308.578ZM894.511 299.693H900.455V294.892H904.081V316.384H900.455V308.937H894.511V311.485H880.629V297.342H894.511V299.693ZM884.255 308.643H890.918V300.216H884.255V308.643ZM904.734 323.798H884.614V314.391H888.305V320.859H904.734V323.798ZM900.455 306.03V302.666H894.511V306.03H900.455Z" fill="currentTextColor"/>
<path d="M275.888 336.496H280.428V339.469H275.888V354.853H272.263V325.293H275.888V336.496ZM267.788 331.042H257.597V344.597C259.981 344.597 262.132 344.526 264.048 344.384C265.964 344.243 267.908 343.998 269.878 343.649L270.303 346.72C268.169 347.09 266.057 347.335 263.966 347.455C261.887 347.574 259.372 347.634 256.421 347.634H253.972V328.102H267.788V331.042ZM306.264 346.654H302.606V325.326H306.264V346.654ZM307.081 354.232H286.732V344.499H290.39V351.292H307.081V354.232ZM290.162 327.253C291.642 327.253 292.987 327.574 294.195 328.216C295.404 328.848 296.357 329.724 297.053 330.846C297.75 331.967 298.099 333.23 298.099 334.634C298.099 336.061 297.75 337.34 297.053 338.472C296.357 339.594 295.404 340.47 294.195 341.102C292.987 341.733 291.642 342.049 290.162 342.049C288.67 342.049 287.315 341.733 286.095 341.102C284.887 340.47 283.934 339.594 283.237 338.472C282.54 337.34 282.192 336.061 282.192 334.634C282.192 333.23 282.54 331.967 283.237 330.846C283.934 329.724 284.887 328.848 286.095 328.216C287.315 327.574 288.67 327.253 290.162 327.253ZM290.162 330.421C289.323 330.421 288.567 330.595 287.892 330.944C287.217 331.292 286.689 331.787 286.307 332.43C285.926 333.072 285.741 333.807 285.752 334.634C285.741 335.484 285.926 336.23 286.307 336.872C286.689 337.514 287.217 338.01 287.892 338.358C288.567 338.706 289.323 338.881 290.162 338.881C290.978 338.881 291.719 338.706 292.383 338.358C293.047 338.01 293.569 337.514 293.951 336.872C294.342 336.23 294.538 335.484 294.538 334.634C294.538 333.807 294.342 333.072 293.951 332.43C293.569 331.787 293.047 331.292 292.383 330.944C291.719 330.595 290.978 330.421 290.162 330.421ZM325.731 330.127H331.676V325.326H335.301V346.818H331.676V339.371H325.731V341.918H311.85V327.775H325.731V330.127ZM315.475 339.077H322.138V330.65H315.475V339.077ZM335.954 354.232H315.834V344.825H319.525V351.292H335.954V354.232ZM331.676 336.464V333.099H325.731V336.464H331.676Z" fill="currentTextColor"/>
<path d="M393.585 649.46H397.733V652.465H393.585V662.525H389.96V641.164H393.585V649.46ZM384.766 646.521H375.131V654.556H375.751C378.408 654.556 380.58 654.49 382.268 654.36C383.966 654.229 385.637 653.99 387.281 653.641L387.673 656.581C385.79 656.951 383.852 657.201 381.859 657.332C379.867 657.463 377.221 657.528 373.922 657.528H371.538V643.614H384.766V646.521ZM394.761 670.103H374.674V660.272H378.299V667.163H394.761V670.103ZM426.117 658.247H414.424V661.088H422.818V670.691H419.193V664.028H402.175V661.088H410.831V658.247H399.203V655.372H426.117V658.247ZM406.291 644.822H419.029V641.883H422.622V653.184H402.698V641.883H406.291V644.822ZM419.029 650.277V647.533H406.291V650.277H419.029ZM443.265 645.998H449.209V641.197H452.835V662.689H449.209V655.242H443.265V657.789H429.383V643.646H443.265V645.998ZM433.009 654.948H439.672V646.521H433.009V654.948ZM453.488 670.103H433.368V660.696H437.059V667.163H453.488V670.103ZM449.209 652.335V648.97H443.265V652.335H449.209Z" fill="currentTextColor"/>
<path d="M620.258 649.82H624.373V652.825H620.258V662.754H616.632V641.164H620.258V649.82ZM621.433 670.103H601.346V660.5H604.971V667.163H621.433V670.103ZM605.265 643.124C606.746 643.124 608.091 643.445 609.299 644.087C610.508 644.719 611.46 645.601 612.157 646.733C612.865 647.865 613.224 649.145 613.235 650.571C613.224 651.975 612.865 653.244 612.157 654.376C611.46 655.498 610.502 656.379 609.283 657.022C608.074 657.664 606.735 657.985 605.265 657.985C603.785 657.985 602.435 657.664 601.215 657.022C599.996 656.379 599.032 655.498 598.325 654.376C597.628 653.244 597.285 651.975 597.296 650.571C597.285 649.156 597.628 647.882 598.325 646.749C599.032 645.606 599.996 644.719 601.215 644.087C602.435 643.445 603.785 643.124 605.265 643.124ZM605.265 646.292C604.438 646.292 603.687 646.472 603.012 646.831C602.337 647.179 601.803 647.68 601.411 648.334C601.03 648.976 600.845 649.722 600.856 650.571C600.845 651.398 601.03 652.133 601.411 652.776C601.803 653.418 602.337 653.913 603.012 654.262C603.687 654.61 604.438 654.784 605.265 654.784C606.093 654.784 606.839 654.61 607.503 654.262C608.178 653.913 608.706 653.418 609.087 652.776C609.479 652.133 609.675 651.398 609.675 650.571C609.675 649.722 609.479 648.976 609.087 648.334C608.706 647.68 608.178 647.179 607.503 646.831C606.839 646.472 606.093 646.292 605.265 646.292ZM651.352 670.691H647.89V641.164H651.352V670.691ZM645.244 669.287H641.782V659.422H637.177V656.45H641.782V652.073H637.699C636.981 654.599 635.805 656.897 634.172 658.965C632.549 661.034 630.394 662.863 627.705 664.452L625.581 661.872C628.586 660.097 630.846 658.051 632.359 655.732C633.883 653.413 634.781 650.734 635.054 647.697H627.149V644.757H638.646C638.646 646.281 638.543 647.729 638.336 649.101H641.782V641.883H645.244V669.287ZM669.937 645.998H675.882V641.197H679.507V662.689H675.882V655.242H669.937V657.789H656.056V643.646H669.937V645.998ZM659.681 654.948H666.344V646.521H659.681V654.948ZM680.161 670.103H660.04V660.696H663.731V667.163H680.161V670.103ZM675.882 652.335V648.97H669.937V652.335H675.882Z" fill="currentTextColor"/>
<path d="M471.568 956.232C471.568 958.115 471.525 959.786 471.438 961.245C471.351 962.693 471.133 964.343 470.784 966.194H474.867V969.133H463.141V981.349H459.483V969.133H447.953V966.194H467.093C467.453 964.408 467.681 962.786 467.779 961.327C467.888 959.868 467.943 958.268 467.943 956.526H451.121V953.586H471.568V956.232ZM487.475 958.779C487.475 959.977 487.747 961.126 488.292 962.225C488.836 963.314 489.642 964.288 490.709 965.149C491.787 966.009 493.082 966.673 494.596 967.141L492.832 969.983C491.188 969.482 489.762 968.725 488.553 967.713C487.355 966.7 486.408 965.502 485.711 964.12C485.047 965.611 484.105 966.907 482.886 968.007C481.667 969.106 480.213 969.928 478.525 970.473L476.762 967.631C478.264 967.152 479.549 966.46 480.616 965.557C481.683 964.653 482.489 963.619 483.033 962.454C483.577 961.289 483.85 960.064 483.85 958.779V958.322H477.676V955.448H483.85V951.985H487.508V955.448H493.648V958.322H487.475V958.779ZM501.585 973.739H497.96V963.515H492.669V960.608H497.96V951.822H501.585V973.739ZM502.337 980.729H482.216V971.844H485.842V977.789H502.337V980.729ZM520.922 956.624H526.867V951.822H530.492V973.314H526.867V965.867H520.922V968.415H507.04V954.272H520.922V956.624ZM510.666 965.573H517.329V957.146H510.666V965.573ZM531.145 980.729H511.025V971.322H514.716V977.789H531.145V980.729ZM526.867 962.96V959.596H520.922V962.96H526.867Z" fill="currentTextColor"/>
<path d="M223.581 777.489H227.729V780.494H223.581V790.554H219.955V769.192H223.581V777.489ZM214.762 774.549H205.126V782.584H205.747C208.404 782.584 210.576 782.519 212.263 782.388C213.962 782.258 215.633 782.018 217.277 781.67L217.669 784.609C215.785 784.979 213.847 785.23 211.855 785.36C209.863 785.491 207.217 785.556 203.918 785.556H201.534V771.642H214.762V774.549ZM224.757 798.132H204.669V788.3H208.295V795.192H224.757V798.132ZM244.943 783.041H230.702V770.728H244.943V783.041ZM234.294 780.2H241.35V773.635H234.294V780.2ZM253.729 784.217H250.136V769.192H253.729V784.217ZM253.729 793.2H237.822V795.584H254.611V798.458H234.229V790.587H250.201V788.398H234.196V785.556H253.729V793.2ZM273.261 774.026H279.206V769.225H282.832V790.717H279.206V783.27H273.261V785.818H259.38V771.675H273.261V774.026ZM263.005 782.976H269.668V774.549H263.005V782.976ZM283.485 798.132H263.364V788.725H267.055V795.192H283.485V798.132ZM279.206 780.363V776.999H273.261V780.363H279.206Z" fill="currentTextColor"/>
<path d="M1526.29 1301.82C1526.29 1303.4 1526.25 1304.81 1526.16 1306.05C1526.08 1307.28 1525.89 1308.67 1525.57 1310.21H1529.59V1313.15H1502.61V1310.21H1521.9C1522.21 1308.78 1522.42 1307.46 1522.52 1306.26C1522.62 1305.06 1522.67 1303.79 1522.67 1302.44H1505.94V1299.53H1526.29V1301.82ZM1526.26 1327.26H1505.84V1316.58H1526.26V1327.26ZM1509.4 1324.32H1522.67V1319.42H1509.4V1324.32ZM1542.33 1302.34C1542.32 1303.7 1542.57 1304.99 1543.1 1306.2C1543.62 1307.4 1544.4 1308.47 1545.45 1309.4C1546.5 1310.31 1547.78 1311.01 1549.29 1311.49L1547.33 1314.33C1545.74 1313.77 1544.38 1312.98 1543.24 1311.94C1542.12 1310.91 1541.24 1309.68 1540.6 1308.25C1539.93 1309.9 1538.98 1311.32 1537.74 1312.53C1536.5 1313.73 1535 1314.63 1533.25 1315.24L1531.32 1312.3C1532.91 1311.78 1534.26 1311.02 1535.35 1310.03C1536.45 1309.04 1537.28 1307.9 1537.84 1306.6C1538.39 1305.31 1538.67 1303.94 1538.67 1302.5V1299.7H1542.33V1302.34ZM1556.24 1315.47H1552.62V1306.78H1546.74V1303.81H1552.62V1298.09H1556.24V1315.47ZM1546.25 1316.26C1548.33 1316.26 1550.12 1316.48 1551.64 1316.92C1553.16 1317.37 1554.33 1318.02 1555.13 1318.88C1555.94 1319.73 1556.34 1320.75 1556.34 1321.94C1556.34 1323.13 1555.94 1324.14 1555.13 1324.99C1554.33 1325.84 1553.17 1326.48 1551.65 1326.92C1550.14 1327.37 1548.34 1327.59 1546.25 1327.59C1544.17 1327.59 1542.37 1327.37 1540.86 1326.92C1539.36 1326.48 1538.2 1325.84 1537.4 1324.99C1536.6 1324.14 1536.21 1323.13 1536.22 1321.94C1536.21 1320.75 1536.6 1319.73 1537.4 1318.88C1538.2 1318.02 1539.36 1317.37 1540.87 1316.92C1542.39 1316.48 1544.18 1316.26 1546.25 1316.26ZM1546.25 1319.06C1544.18 1319.06 1542.59 1319.31 1541.48 1319.82C1540.37 1320.31 1539.81 1321.01 1539.81 1321.94C1539.81 1322.84 1540.37 1323.54 1541.48 1324.03C1542.6 1324.51 1544.19 1324.75 1546.25 1324.75C1548.31 1324.75 1549.9 1324.5 1551.02 1324.01C1552.15 1323.52 1552.72 1322.83 1552.72 1321.94C1552.72 1321.01 1552.15 1320.31 1551.03 1319.82C1549.91 1319.31 1548.32 1319.06 1546.25 1319.06ZM1575.58 1302.93H1581.52V1298.13H1585.15V1319.62H1581.52V1312.17H1575.58V1314.72H1561.7V1300.58H1575.58V1302.93ZM1565.32 1311.88H1571.99V1303.45H1565.32V1311.88ZM1585.8 1327.03H1565.68V1317.63H1569.37V1324.09H1585.8V1327.03ZM1581.52 1309.27V1305.9H1575.58V1309.27H1581.52Z" fill="currentTextColor"/>
<path d="M1733.52 1524.75H1737.9V1527.79H1733.52V1542.69H1729.89V1513.22H1733.52V1524.75ZM1725.71 1516.29C1725.71 1525.98 1721.24 1533.03 1712.29 1537.43L1710.23 1534.62C1713.82 1532.83 1716.59 1530.67 1718.54 1528.13C1720.5 1525.6 1721.67 1522.65 1722.04 1519.3H1711.83V1516.29H1725.71ZM1752.72 1513.81C1754.89 1513.81 1756.77 1514.04 1758.36 1514.5C1759.96 1514.95 1761.19 1515.62 1762.05 1516.49C1762.92 1517.35 1763.36 1518.37 1763.37 1519.56C1763.36 1520.73 1762.92 1521.73 1762.05 1522.58C1761.19 1523.43 1759.96 1524.08 1758.36 1524.53C1756.77 1524.97 1754.89 1525.19 1752.72 1525.18C1750.58 1525.19 1748.7 1524.97 1747.09 1524.53C1745.49 1524.08 1744.25 1523.43 1743.38 1522.58C1742.51 1521.73 1742.08 1520.73 1742.08 1519.56C1742.08 1518.37 1742.51 1517.35 1743.38 1516.49C1744.25 1515.62 1745.49 1514.95 1747.09 1514.5C1748.7 1514.04 1750.58 1513.81 1752.72 1513.81ZM1752.72 1516.65C1750.55 1516.65 1748.85 1516.9 1747.65 1517.4C1746.45 1517.91 1745.85 1518.62 1745.87 1519.56C1745.85 1520.45 1746.45 1521.14 1747.65 1521.62C1748.85 1522.1 1750.55 1522.35 1752.72 1522.37C1754.9 1522.35 1756.6 1522.1 1757.8 1521.62C1759.01 1521.14 1759.62 1520.45 1759.62 1519.56C1759.62 1518.62 1759.01 1517.91 1757.8 1517.4C1756.6 1516.9 1754.9 1516.65 1752.72 1516.65ZM1762.95 1542.39H1742.47V1532.46H1762.95V1542.39ZM1746.06 1539.45H1759.42V1535.34H1746.06V1539.45ZM1766.21 1530.11H1739.3V1527.17H1766.21V1530.11ZM1783.36 1518.06H1789.31V1513.26H1792.93V1534.75H1789.31V1527.3H1783.36V1529.85H1769.48V1515.71H1783.36V1518.06ZM1773.11 1527.01H1779.77V1518.58H1773.11V1527.01ZM1793.59 1542.16H1773.47V1532.76H1777.16V1539.22H1793.59V1542.16ZM1789.31 1524.39V1521.03H1783.36V1524.39H1789.31Z" fill="currentTextColor"/>
<path d="M1532.2 526.679H1536.34V529.684H1532.2V539.744H1528.57V518.383H1532.2V526.679ZM1523.38 523.74H1513.74V531.774H1514.36C1517.02 531.774 1519.19 531.709 1520.88 531.579C1522.58 531.448 1524.25 531.208 1525.89 530.86L1526.28 533.8C1524.4 534.17 1522.46 534.42 1520.47 534.551C1518.48 534.681 1515.83 534.747 1512.53 534.747H1510.15V520.833H1523.38V523.74ZM1533.37 547.322H1513.28V537.49H1516.91V544.382H1533.37V547.322ZM1553.13 520.277C1553.13 521.442 1553.56 522.585 1554.41 523.707C1555.27 524.817 1556.46 525.781 1558 526.597C1559.54 527.403 1561.3 527.942 1563.26 528.214L1561.89 531.089C1559.48 530.718 1557.35 529.983 1555.48 528.884C1553.63 527.773 1552.23 526.418 1551.29 524.817C1550.33 526.44 1548.92 527.811 1547.06 528.933C1545.19 530.043 1543.06 530.784 1540.65 531.154L1539.28 528.312C1541.24 528.018 1542.99 527.468 1544.53 526.663C1546.06 525.846 1547.25 524.877 1548.1 523.756C1548.96 522.634 1549.4 521.475 1549.41 520.277V519.134H1553.13V520.277ZM1564.76 535.988H1553.36V541.377H1549.77V535.988H1537.78V533.048H1564.76V535.988ZM1561.79 547.322H1541.05V538.732H1544.67V544.382H1561.79V547.322ZM1581.87 523.217H1587.82V518.416H1591.44V539.907H1587.82V532.46H1581.87V535.008H1567.99V520.865H1581.87V523.217ZM1571.62 532.166H1578.28V523.74H1571.62V532.166ZM1592.1 547.322H1571.98V537.915H1575.67V544.382H1592.1V547.322ZM1587.82 529.553V526.189H1581.87V529.553H1587.82Z" fill="currentTextColor"/>
<path d="M1848.45 564.915H1844.83V557.762H1839.73V554.79H1844.83V547.768H1848.45V564.915ZM1848.45 576.935H1828.82V566.189H1848.45V576.935ZM1832.45 573.996H1844.89V569.064H1832.45V573.996ZM1834.57 552.634C1834.57 553.843 1834.84 555.019 1835.37 556.162C1835.91 557.305 1836.7 558.334 1837.74 559.248C1838.79 560.163 1840.05 560.876 1841.53 561.388L1839.7 564.262C1838.09 563.707 1836.7 562.901 1835.52 561.845C1834.36 560.789 1833.44 559.548 1832.78 558.122C1832.1 559.7 1831.15 561.072 1829.92 562.237C1828.69 563.391 1827.22 564.251 1825.53 564.817L1823.66 561.976C1825.19 561.464 1826.49 560.724 1827.57 559.755C1828.66 558.786 1829.48 557.686 1830.03 556.456C1830.6 555.215 1830.88 553.93 1830.88 552.602V552.373H1824.74V549.433H1840.68V552.373H1834.57V552.634ZM1879.48 564.393H1852.7V561.486H1863.09V555.803H1866.68V561.486H1879.48V564.393ZM1876.05 577.295H1872.4V570.141H1855.48V567.234H1876.05V577.295ZM1876.22 551.426C1876.22 552.983 1876.17 554.387 1876.09 555.639C1876.01 556.88 1875.82 558.263 1875.5 559.787L1871.87 559.461C1872.16 558.1 1872.34 556.87 1872.43 555.77C1872.53 554.659 1872.58 553.462 1872.59 552.177H1855.77V549.303H1876.22V551.426ZM1896.7 552.602H1902.64V547.8H1906.27V569.292H1902.64V561.845H1896.7V564.393H1882.82V550.25H1896.7V552.602ZM1886.44 561.551H1893.1V553.124H1886.44V561.551ZM1906.92 576.707H1886.8V567.3H1890.49V573.767H1906.92V576.707ZM1902.64 558.938V555.574H1896.7V558.938H1902.64Z" fill="currentTextColor"/>
<path d="M2083.77 806.542C2085.91 806.542 2087.78 806.782 2089.38 807.261C2090.98 807.729 2092.22 808.404 2093.09 809.286C2093.96 810.168 2094.4 811.213 2094.41 812.422C2094.4 813.5 2094.04 814.452 2093.32 815.28C2092.61 816.096 2091.59 816.755 2090.26 817.256C2088.95 817.746 2087.39 818.05 2085.59 818.17V820.587H2097.25V823.494H2070.34V820.587H2081.94V818.17C2080.13 818.05 2078.56 817.746 2077.23 817.256C2075.92 816.755 2074.9 816.096 2074.18 815.28C2073.47 814.452 2073.12 813.5 2073.12 812.422C2073.12 811.213 2073.55 810.168 2074.42 809.286C2075.29 808.404 2076.53 807.729 2078.13 807.261C2079.74 806.782 2081.62 806.542 2083.77 806.542ZM2083.77 809.449C2081.58 809.449 2079.88 809.705 2078.69 810.217C2077.49 810.718 2076.89 811.453 2076.91 812.422C2076.89 813.042 2077.16 813.576 2077.71 814.022C2078.25 814.468 2079.04 814.811 2080.07 815.051C2081.11 815.28 2082.34 815.394 2083.77 815.394C2085.19 815.394 2086.42 815.28 2087.46 815.051C2088.49 814.811 2089.28 814.468 2089.82 814.022C2090.38 813.576 2090.66 813.042 2090.66 812.422C2090.66 811.453 2090.05 810.718 2088.84 810.217C2087.65 809.705 2085.95 809.449 2083.77 809.449ZM2093.96 835.449H2090.33V828.688H2073.31V825.813H2093.96V835.449ZM2109.83 811.148C2109.82 812.454 2110.08 813.712 2110.61 814.92C2111.16 816.118 2111.96 817.179 2113.03 818.105C2114.1 819.03 2115.38 819.738 2116.88 820.228L2114.99 823.102C2113.38 822.558 2111.99 821.758 2110.83 820.702C2109.67 819.635 2108.76 818.377 2108.1 816.929C2107.42 818.53 2106.48 819.912 2105.26 821.077C2104.05 822.242 2102.6 823.124 2100.91 823.723L2098.89 820.849C2100.47 820.337 2101.8 819.591 2102.89 818.611C2103.98 817.62 2104.79 816.483 2105.34 815.198C2105.89 813.902 2106.17 812.541 2106.17 811.115V807.751H2109.83V811.148ZM2122.54 814.643H2126.65V817.713H2122.54V827.61H2118.91V805.922H2122.54V814.643ZM2123.71 834.861H2103.62V825.487H2107.35V831.921H2123.71V834.861ZM2143.31 810.756H2149.25V805.954H2152.88V827.446H2149.25V819.999H2143.31V822.547H2129.43V808.404H2143.31V810.756ZM2133.05 819.705H2139.72V811.278H2133.05V819.705ZM2153.53 834.861H2133.41V825.454H2137.1V831.921H2153.53V834.861ZM2149.25 817.092V813.728H2143.31V817.092H2149.25Z" fill="currentTextColor"/>
<path d="M1905.64 1109.99C1905.63 1111.75 1905.91 1113.49 1906.47 1115.18C1907.05 1116.87 1907.88 1118.39 1908.97 1119.72C1910.06 1121.06 1911.34 1122.09 1912.82 1122.79L1910.6 1125.7C1909.04 1124.91 1907.68 1123.77 1906.52 1122.3C1905.38 1120.84 1904.49 1119.14 1903.84 1117.21C1903.18 1119.27 1902.24 1121.09 1901.03 1122.66C1899.84 1124.23 1898.41 1125.43 1896.76 1126.26L1894.53 1123.35C1896.07 1122.62 1897.4 1121.56 1898.52 1120.17C1899.65 1118.76 1900.51 1117.18 1901.1 1115.41C1901.7 1113.64 1902 1111.83 1902.01 1109.99V1105.29H1905.64V1109.99ZM1918.21 1114.47H1922.75V1117.57H1918.21V1132.43H1914.59V1102.9H1918.21V1114.47ZM1950.84 1119.53H1924.06V1116.62H1934.45V1110.94H1938.04V1116.62H1950.84V1119.53ZM1947.41 1132.43H1943.76V1125.28H1926.84V1122.37H1947.41V1132.43ZM1947.58 1106.56C1947.58 1108.12 1947.53 1109.52 1947.45 1110.78C1947.37 1112.02 1947.18 1113.4 1946.86 1114.92L1943.23 1114.6C1943.52 1113.24 1943.7 1112.01 1943.79 1110.91C1943.89 1109.8 1943.94 1108.6 1943.95 1107.31H1927.13V1104.44H1947.58V1106.56ZM1968.06 1107.74H1974V1102.94H1977.63V1124.43H1974V1116.98H1968.06V1119.53H1954.18V1105.39H1968.06V1107.74ZM1957.8 1116.69H1964.46V1108.26H1957.8V1116.69ZM1978.28 1131.84H1958.16V1122.44H1961.85V1128.9H1978.28V1131.84ZM1974 1114.07V1110.71H1968.06V1114.07H1974Z" fill="currentTextColor"/>
<path d="M1997.41 1391.35H2006.46V1394.16H1997.69C1997.84 1395.07 1998.33 1395.91 1999.14 1396.66C1999.97 1397.4 2001.11 1398.02 2002.56 1398.52C2004.01 1399.02 2005.74 1399.35 2007.73 1399.52L2006.56 1402.29C2003.95 1402.06 2001.71 1401.53 1999.83 1400.69C1997.95 1399.84 1996.54 1398.74 1995.62 1397.39C1994.69 1398.74 1993.29 1399.84 1991.4 1400.69C1989.52 1401.53 1987.28 1402.06 1984.67 1402.29L1983.5 1399.52C1985.48 1399.35 1987.19 1399.02 1988.64 1398.52C1990.1 1398.02 1991.24 1397.4 1992.05 1396.66C1992.88 1395.91 1993.38 1395.07 1993.54 1394.16H1984.84V1391.35H1993.82V1388.38H1997.41V1391.35ZM2009.14 1406.6H1997.74V1411.76H1994.15V1406.6H1982.16V1403.73H2009.14V1406.6ZM2006.17 1417.28H1985.42V1409.05H1989.05V1414.34H2006.17V1417.28ZM2021.68 1393.57C2021.67 1394.88 2021.93 1396.13 2022.46 1397.34C2023.01 1398.54 2023.81 1399.6 2024.88 1400.53C2025.95 1401.45 2027.23 1402.16 2028.73 1402.65L2026.84 1405.53C2025.23 1404.98 2023.84 1404.18 2022.68 1403.12C2021.52 1402.06 2020.61 1400.8 2019.95 1399.35C2019.27 1400.95 2018.33 1402.34 2017.11 1403.5C2015.9 1404.67 2014.45 1405.55 2012.76 1406.15L2010.74 1403.27C2012.32 1402.76 2013.65 1402.01 2014.74 1401.03C2015.83 1400.04 2016.64 1398.91 2017.19 1397.62C2017.74 1396.33 2018.02 1394.96 2018.02 1393.54V1390.17H2021.68V1393.57ZM2034.39 1397.07H2038.5V1400.14H2034.39V1410.03H2030.76V1388.34H2034.39V1397.07ZM2035.56 1417.28H2015.47V1407.91H2019.2V1414.34H2035.56V1417.28ZM2055.16 1393.18H2061.1V1388.38H2064.73V1409.87H2061.1V1402.42H2055.16V1404.97H2041.28V1390.83H2055.16V1393.18ZM2044.9 1402.13H2051.57V1393.7H2044.9V1402.13ZM2065.38 1417.28H2045.26V1407.88H2048.95V1414.34H2065.38V1417.28ZM2061.1 1399.52V1396.15H2055.16V1399.52H2061.1Z" fill={currentTextColor}/>
</g>
<defs>
<clipPath id="clip0_44_2679">
<rect width="2367.47" height="1640.11" fill="white" transform="translate(0.974121 0.891602)"/>
</clipPath>
</defs>
</svg>
