<svg xmlns="http://www.w3.org/2000/svg" viewBox="0 0 800 640">
  <g fill="none" stroke="black" stroke-width="1">
    <path d="M 660,579 660,580 662,580 662,579 661,580 Z" />
    <path d="M 657,579 658,579 Z" />
    <path d="M 649,576 651,576 Z" />
    <path d="M 627,575 628,576 629,576 630,575 Z" />
    <path d="M 635,574 636,574 Z" />
    <path d="M 604,571 603,572 Z" />
    <path d="M 621,570 Z" />
    <path d="M 670,568 667,571 668,571 669,570 669,569 Z" />
    <path d="M 569,568 570,568 Z" />
    <path d="M 553,568 Z" />
    <path d="M 605,566 Z" />
    <path d="M 583,566 585,566 Z" />
    <path d="M 540,566 542,568 543,567 542,568 Z" />
    <path d="M 772,564 772,565 775,565 774,564 773,565 Z" />
    <path d="M 767,564 767,565 770,565 770,564 769,565 768,564 Z" />
    <path d="M 673,563 Z" />
    <path d="M 607,562 606,563 607,563 608,562 611,562 Z" />
    <path d="M 781,560 783,560 Z" />
    <path d="M 786,558 Z" />
    <path d="M 788,557 789,557 Z" />
    <path d="M 674,557 Z" />
    <path d="M 462,553 462,554 461,555 460,555 459,556 460,555 462,555 Z" />
    <path d="M 452,553 Z" />
    <path d="M 535,551 Z" />
    <path d="M 505,549 505,550 504,551 505,550 Z" />
    <path d="M 451,549 Z" />
    <path d="M 683,548 Z" />
    <path d="M 466,547 465,548 465,549 465,548 Z" />
    <path d="M 508,546 Z" />
    <path d="M 736,545 736,546 738,546 737,546 Z" />
    <path d="M 529,545 529,546 530,546 531,547 532,547 531,546 530,546 Z" />
    <path d="M 468,545 Z" />
    <path d="M 449,544 Z" />
    <path d="M 731,542 732,543 733,543 732,543 Z" />
    <path d="M 728,540 Z" />
    <path d="M 716,539 715,540 714,540 716,540 Z" />
    <path d="M 789,536 Z" />
    <path d="M 706,536 706,537 707,537 Z" />
    <path d="M 780,531 780,532 781,531 782,532 783,532 782,531 Z" />
    <path d="M 774,525 775,526 775,527 776,528 776,529 777,530 777,529 775,527 775,525 Z" />
    <path d="M 448,525 448,527 449,527 452,530 452,533 453,532 452,531 452,529 451,529 449,527 450,526 450,525 Z" />
    <path d="M 453,522 Z" />
    <path d="M 760,510 Z" />
    <path d="M 448,504 448,505 450,507 450,509 451,510 451,511 451,510 450,509 450,507 449,506 449,504 Z" />
    <path d="M 456,499 Z" />
    <path d="M 777,492 777,493 Z" />
    <path d="M 456,482 455,483 455,484 455,483 Z" />
    <path d="M 774,481 775,482 775,483 777,485 776,486 777,486 777,485 775,483 775,481 Z" />
    <path d="M 457,475 Z" />
    <path d="M 771,473 Z" />
    <path d="M 766,472 766,473 767,472 768,472 769,473 768,472 Z" />
    <path d="M 764,471 Z" />
    <path d="M 758,469 759,470 760,469 761,470 761,469 Z" />
    <path d="M 443,467 445,469 446,469 446,468 444,468 Z" />
    <path d="M 429,461 Z" />
    <path d="M 736,458 737,458 Z" />
    <path d="M 733,457 732,458 Z" />
    <path d="M 421,457 422,457 Z" />
    <path d="M 406,457 407,457 Z" />
    <path d="M 415,456 Z" />
    <path d="M 365,451 367,451 Z" />
    <path d="M 350,451 350,452 352,452 352,451 351,452 Z" />
    <path d="M 347,451 348,451 Z" />
    <path d="M 400,449 400,451 401,452 401,453 402,453 401,452 401,451 400,450 401,449 Z" />
    <path d="M 399,446 399,447 400,447 Z" />
    <path d="M 394,446 397,446 Z" />
    <path d="M 761,445 761,446 762,446 763,445 Z" />
    <path d="M 390,445 391,446 392,446 392,445 391,446 Z" />
    <path d="M 341,444 341,445 342,445 Z" />
    <path d="M 767,442 767,443 Z" />
    <path d="M 378,442 378,443 382,443 383,444 384,444 383,443 381,443 380,442 379,443 Z" />
    <path d="M 339,434 339,441 340,441 339,440 340,439 339,438 Z" />
    <path d="M 154,433 154,434 159,434 159,433 158,434 155,434 Z" />
    <path d="M 768,432 768,434 767,435 768,434 Z" />
    <path d="M 163,432 162,433 161,433 163,433 Z" />
    <path d="M 147,430 148,431 149,431 148,431 Z" />
    <path d="M 768,429 768,430 Z" />
    <path d="M 166,428 Z" />
    <path d="M 336,427 Z" />
    <path d="M 167,425 Z" />
    <path d="M 769,423 769,426 Z" />
    <path d="M 333,422 333,424 334,425 334,424 333,423 Z" />
    <path d="M 767,419 768,420 768,421 768,419 Z" />
    <path d="M 167,419 167,420 166,421 166,423 166,421 167,420 Z" />
    <path d="M 139,419 139,421 Z" />
    <path d="M 768,416 Z" />
    <path d="M 179,415 181,415 Z" />
    <path d="M 170,415 169,416 Z" />
    <path d="M 133,413 133,414 134,415 133,414 Z" />
    <path d="M 132,411 Z" />
    <path d="M 769,409 769,411 Z" />
    <path d="M 299,409 299,410 300,410 Z" />
    <path d="M 285,406 286,406 Z" />
    <path d="M 276,406 277,406 Z" />
    <path d="M 198,404 197,405 196,405 195,406 194,405 194,406 195,406 196,405 198,405 Z" />
    <path d="M 129,404 129,406 130,406 129,405 130,404 Z" />
    <path d="M 261,400 262,401 Z" />
    <path d="M 256,399 256,400 257,400 258,399 259,399 258,399 257,400 Z" />
    <path d="M 130,397 130,400 Z" />
    <path d="M 248,395 249,396 250,396 249,396 Z" />
    <path d="M 245,394 246,394 Z" />
    <path d="M 241,393 242,393 Z" />
    <path d="M 199,393 199,401 Z" />
    <path d="M 784,390 785,391 784,392 785,392 785,390 Z" />
    <path d="M 204,385 Z" />
    <path d="M 207,380 207,381 206,382 207,381 Z" />
    <path d="M 234,377 234,378 235,379 236,379 237,380 237,381 238,381 239,382 239,387 240,387 239,386 239,385 240,384 239,383 239,382 Z" />
    <path d="M 230,376 230,377 232,377 231,377 Z" />
    <path d="M 227,376 228,376 Z" />
    <path d="M 110,374 Z" />
    <path d="M 219,373 221,373 222,374 224,374 222,374 221,373 Z" />
    <path d="M 216,369 Z" />
    <path d="M 26,366 27,367 29,367 29,366 28,367 27,366 Z" />
    <path d="M 102,361 Z" />
    <path d="M 41,361 41,362 40,363 39,363 39,364 40,364 41,363 Z" />
    <path d="M 21,359 21,361 22,361 21,360 22,359 Z" />
    <path d="M 101,356 101,357 Z" />
    <path d="M 47,351 Z" />
    <path d="M 91,348 Z" />
    <path d="M 85,348 85,349 87,349 88,348 87,349 86,348 Z" />
    <path d="M 82,347 82,348 83,348 Z" />
    <path d="M 77,342 77,344 Z" />
    <path d="M 779,341 780,342 780,344 780,342 Z" />
    <path d="M 61,340 61,341 62,342 61,343 60,343 62,343 62,342 61,341 Z" />
    <path d="M 6,340 Z" />
    <path d="M 0,340 1,341 4,341 4,340 3,341 1,341 Z" />
    <path d="M 777,336 778,337 778,339 778,337 Z" />
    <path d="M 63,336 64,336 Z" />
    <path d="M 777,334 Z" />
    <path d="M 772,329 773,329 774,330 775,330 776,331 776,332 776,331 775,330 774,330 773,329 Z" />
    <path d="M 11,326 11,327 12,326 Z" />
    <path d="M 22,313 21,314 20,314 19,315 19,316 Z" />
    <path d="M 25,311 24,312 26,312 27,311 Z" />
    <path d="M 765,301 766,302 Z" />
    <path d="M 29,300 29,305 29,304 30,303 29,302 Z" />
    <path d="M 764,299 Z" />
    <path d="M 30,290 29,291 29,293 29,292 30,291 Z" />
    <path d="M 31,287 Z" />
    <path d="M 763,284 762,285 Z" />
    <path d="M 763,278 764,278 765,279 764,280 765,281 765,282 765,278 Z" />
    <path d="M 53,262 53,264 Z" />
    <path d="M 733,260 734,260 Z" />
    <path d="M 729,260 Z" />
    <path d="M 56,259 55,260 Z" />
    <path d="M 56,253 56,254 Z" />
    <path d="M 58,250 58,251 59,250 Z" />
    <path d="M 729,244 729,245 730,246 729,247 730,247 730,245 Z" />
    <path d="M 729,241 Z" />
    <path d="M 60,239 Z" />
    <path d="M 403,233 404,233 405,234 406,234 407,235 408,235 407,235 405,233 Z" />
    <path d="M 722,232 722,234 723,235 723,236 725,238 726,238 727,239 726,238 725,238 723,236 723,234 722,233 Z" />
    <path d="M 56,232 56,237 57,238 57,237 56,236 57,235 56,234 Z" />
    <path d="M 409,231 409,232 Z" />
    <path d="M 400,229 401,230 401,231 401,229 Z" />
    <path d="M 400,223 400,224 401,225 401,224 Z" />
    <path d="M 721,221 Z" />
    <path d="M 414,217 414,218 413,219 413,221 412,222 412,225 412,222 413,221 413,219 415,217 Z" />
    <path d="M 417,216 Z" />
    <path d="M 432,215 Z" />
    <path d="M 422,214 421,215 419,215 419,216 420,215 421,215 422,214 423,214 Z" />
    <path d="M 398,214 399,215 399,216 399,214 Z" />
    <path d="M 41,214 41,216 43,216 42,216 41,215 Z" />
    <path d="M 717,212 717,213 Z" />
    <path d="M 438,209 437,210 437,213 436,214 437,214 437,213 438,212 437,211 438,210 Z" />
    <path d="M 716,206 717,207 717,209 718,209 718,208 Z" />
    <path d="M 437,205 437,207 Z" />
    <path d="M 441,203 441,204 442,203 443,204 442,203 Z" />
    <path d="M 400,200 400,202 Z" />
    <path d="M 463,197 463,198 464,197 465,197 Z" />
    <path d="M 401,196 402,197 401,198 402,198 402,196 Z" />
    <path d="M 706,190 706,192 Z" />
    <path d="M 45,187 45,188 Z" />
    <path d="M 481,186 Z" />
    <path d="M 499,183 499,184 500,183 Z" />
    <path d="M 487,183 488,183 Z" />
    <path d="M 43,183 43,185 Z" />
    <path d="M 379,181 378,182 376,182 376,183 377,182 378,183 380,181 381,182 381,181 Z" />
    <path d="M 373,180 373,182 Z" />
    <path d="M 503,179 Z" />
    <path d="M 704,178 704,179 Z" />
    <path d="M 371,177 Z" />
    <path d="M 370,175 Z" />
    <path d="M 509,173 508,174 507,174 507,175 506,176 505,176 505,177 508,174 510,174 510,173 Z" />
    <path d="M 522,171 522,172 523,171 Z" />
    <path d="M 536,168 537,168 Z" />
    <path d="M 531,168 531,169 532,168 533,169 533,168 Z" />
    <path d="M 702,167 702,168 701,169 702,168 Z" />
    <path d="M 537,166 Z" />
    <path d="M 29,164 Z" />
    <path d="M 536,163 536,164 Z" />
    <path d="M 359,159 359,160 360,161 359,162 359,163 360,163 360,160 Z" />
    <path d="M 700,157 701,158 701,159 701,158 Z" />
    <path d="M 680,155 679,156 680,155 684,155 Z" />
    <path d="M 24,150 23,151 23,152 24,153 24,154 25,154 26,155 26,156 26,155 24,153 Z" />
    <path d="M 660,147 Z" />
    <path d="M 353,147 355,149 355,148 354,147 Z" />
    <path d="M 536,146 535,147 535,152 536,152 537,153 535,151 535,147 Z" />
    <path d="M 534,143 Z" />
    <path d="M 350,138 350,139 Z" />
    <path d="M 534,136 533,137 533,141 533,140 534,139 533,138 533,137 Z" />
    <path d="M 38,135 38,137 Z" />
    <path d="M 630,133 Z" />
    <path d="M 535,132 535,133 534,134 536,132 Z" />
    <path d="M 628,129 629,130 629,131 629,129 Z" />
    <path d="M 343,128 344,129 344,128 Z" />
    <path d="M 541,127 541,128 542,127 Z" />
    <path d="M 626,124 627,125 627,126 627,124 Z" />
    <path d="M 47,123 47,125 47,124 48,123 Z" />
    <path d="M 556,113 558,115 Z" />
    <path d="M 615,112 616,112 Z" />
    <path d="M 554,112 Z" />
    <path d="M 340,110 341,111 341,112 342,113 341,114 342,114 342,113 341,112 341,111 Z" />
    <path d="M 605,107 605,108 606,107 607,107 608,108 608,107 Z" />
    <path d="M 586,106 Z" />
    <path d="M 59,106 Z" />
    <path d="M 332,102 332,103 333,102 334,103 334,102 Z" />
    <path d="M 218,100 217,101 218,100 219,101 219,102 221,104 220,103 220,102 219,101 219,100 Z" />
    <path d="M 221,99 Z" />
    <path d="M 216,99 215,100 Z" />
    <path d="M 222,95 221,96 221,97 221,96 Z" />
    <path d="M 196,91 197,91 Z" />
    <path d="M 311,90 313,90 Z" />
    <path d="M 230,90 231,90 Z" />
    <path d="M 61,89 Z" />
    <path d="M 187,85 188,85 Z" />
    <path d="M 110,85 111,86 111,85 Z" />
    <path d="M 118,83 118,84 119,83 Z" />
    <path d="M 122,82 Z" />
    <path d="M 187,80 187,81 Z" />
    <path d="M 106,80 Z" />
    <path d="M 274,79 274,82 275,83 275,82 274,81 Z" />
    <path d="M 65,78 65,79 Z" />
    <path d="M 139,75 Z" />
    <path d="M 105,74 105,78 Z" />
    <path d="M 68,73 Z" />
    <path d="M 272,70 272,73 Z" />
    <path d="M 106,70 106,71 105,72 106,72 Z" />
    <path d="M 69,68 Z" />
    <path d="M 190,66 191,67 190,68 191,68 191,66 Z" />
    <path d="M 247,65 249,65 Z" />
    <path d="M 242,65 242,66 243,65 244,65 Z" />
    <path d="M 149,65 149,66 150,65 Z" />
    <path d="M 68,65 Z" />
    <path d="M 252,64 252,65 253,64 Z" />
    <path d="M 266,62 270,66 270,67 270,66 269,65 269,64 268,64 Z" />
    <path d="M 262,61 263,61 Z" />
    <path d="M 67,60 67,62 Z" />
    <path d="M 156,58 154,60 154,61 157,58 Z" />
    <path d="M 176,56 175,57 176,57 177,56 178,56 179,57 179,58 179,56 Z" />
    <path d="M 161,55 160,56 161,55 162,55 Z" />
    <path d="M 166,53 165,54 168,54 167,53 Z" />
    <path d="M 68,50 69,50 Z" />
    <path d="M 100,45 101,46 101,47 102,48 102,49 102,48 101,47 101,45 Z" />
    <path d="M 97,42 Z" />
    <path d="M 89,42 88,43 88,44 83,49 82,48 82,47 79,47 78,48 79,48 80,47 81,47 83,49 82,50 74,50 72,48 73,47 74,47 75,48 75,47 72,47 72,48 73,49 73,50 71,52 70,52 69,53 67,53 66,52 65,52 63,54 63,56 64,56 63,55 64,54 64,53 65,52 66,52 67,53 66,54 66,57 67,58 68,58 70,60 70,63 71,64 71,67 72,68 72,71 71,72 71,73 68,76 68,81 67,82 67,85 66,86 66,87 61,92 58,92 58,97 59,98 59,100 59,98 61,96 63,98 62,99 62,100 61,101 61,104 62,105 62,106 63,107 62,108 61,108 59,110 60,110 63,107 64,108 64,110 62,112 60,112 55,117 54,117 53,116 53,115 54,114 55,114 56,113 55,114 53,114 53,116 54,117 54,118 53,119 50,119 50,120 51,119 52,119 53,120 50,123 50,126 46,130 46,131 43,134 42,134 41,135 40,134 40,132 41,131 42,132 42,131 40,131 40,134 41,135 41,138 39,140 38,140 37,141 32,141 28,145 28,146 27,147 27,149 26,150 26,151 27,152 27,153 29,155 29,156 30,157 30,158 31,159 30,160 31,161 31,162 32,163 32,166 31,167 30,167 30,170 32,172 32,173 33,173 34,174 31,171 31,170 32,169 37,174 37,175 39,177 39,178 40,179 38,181 37,180 37,179 36,178 37,179 37,181 39,181 39,180 40,179 41,179 42,180 43,180 46,183 46,185 47,186 47,187 48,188 48,192 49,193 49,194 46,197 46,198 45,199 45,200 44,201 44,203 45,204 45,209 44,210 42,208 43,207 42,206 42,204 41,203 41,201 41,204 42,205 42,209 41,210 41,211 41,210 42,209 43,209 44,210 44,212 43,213 44,214 51,214 52,215 51,216 50,216 49,217 48,216 47,217 45,217 51,217 52,218 51,217 51,216 52,215 53,215 54,216 54,217 55,218 56,218 57,219 58,219 59,220 59,221 58,222 57,221 55,221 55,229 55,222 56,221 57,221 58,222 58,230 59,231 59,234 60,235 60,236 61,237 62,237 64,239 64,240 63,241 63,246 62,247 61,247 61,248 62,247 63,247 64,248 59,253 59,257 58,258 58,260 56,262 56,264 55,265 55,266 54,267 54,270 52,272 52,273 51,274 50,273 48,273 47,274 46,274 45,273 43,273 44,273 45,274 47,274 48,275 48,276 47,277 45,277 44,276 43,276 42,275 38,275 37,276 37,277 36,278 35,277 35,275 36,274 36,273 37,272 38,272 39,271 40,272 41,272 40,271 38,271 37,272 36,272 36,273 35,274 35,276 34,277 33,277 33,279 34,279 35,280 35,284 34,285 34,288 33,289 33,291 32,292 32,293 31,294 31,299 32,300 32,305 31,306 31,309 30,310 28,308 29,307 28,307 28,309 29,309 30,310 30,311 26,315 23,315 18,320 18,321 16,323 16,324 15,325 15,326 8,333 7,333 6,332 6,331 7,330 8,330 9,329 8,329 7,330 6,330 6,333 3,336 0,336 0,337 2,339 3,338 5,338 6,337 7,337 8,336 13,341 12,342 11,342 11,344 12,344 13,345 15,345 13,345 11,343 13,341 14,342 16,342 17,343 18,343 20,345 20,346 21,347 21,348 22,349 22,350 21,351 20,351 20,353 21,354 21,355 22,355 21,354 23,352 24,353 24,356 23,357 24,358 24,362 23,363 22,363 22,365 24,365 23,365 22,364 24,362 25,363 27,363 28,364 32,364 33,363 36,363 37,364 37,365 36,366 33,366 37,366 37,364 36,363 37,362 37,360 38,359 40,359 40,357 41,356 43,356 43,355 42,356 41,356 40,355 44,351 45,351 45,350 47,348 47,347 48,346 49,346 51,344 57,344 58,345 58,346 57,347 52,347 58,347 58,340 59,339 59,338 60,337 60,336 61,335 61,334 62,333 64,333 65,334 66,334 68,336 70,336 71,337 75,337 80,342 80,344 81,344 82,345 84,345 85,346 86,345 89,345 90,346 93,346 94,347 96,347 97,348 96,349 96,351 97,352 99,352 99,351 100,350 103,353 103,355 104,356 104,360 105,361 105,362 106,363 106,364 109,367 109,368 110,369 110,370 112,372 114,372 116,374 115,375 115,377 116,377 117,378 117,379 118,379 116,377 118,375 120,377 120,380 121,381 121,382 123,384 123,388 122,389 121,388 121,387 120,386 120,384 118,382 118,381 118,382 119,383 119,384 120,385 120,387 122,389 122,392 121,393 120,393 119,392 120,391 119,391 119,393 121,393 122,392 123,393 126,393 127,394 129,394 130,395 132,395 133,396 133,401 132,402 132,406 133,407 133,408 134,409 134,410 136,412 136,413 137,414 139,414 141,416 141,417 142,418 142,422 143,423 142,424 142,426 143,426 142,425 142,424 143,423 148,428 149,428 150,429 151,429 153,431 161,431 161,430 164,427 164,424 163,423 163,421 164,420 164,419 165,418 165,417 170,412 173,412 174,413 177,413 178,412 183,412 187,408 187,406 188,405 188,404 190,402 192,402 193,403 196,403 196,388 197,387 199,389 198,390 199,390 199,389 197,387 199,385 201,385 204,382 204,380 206,378 206,376 207,375 207,374 208,373 209,373 210,374 210,375 212,375 213,374 213,373 214,372 214,371 214,372 211,375 209,373 210,372 211,372 211,370 212,369 212,368 213,367 218,367 219,368 219,370 220,370 221,371 224,371 226,373 229,373 230,374 232,374 233,375 235,375 236,376 237,376 240,379 240,380 242,382 242,390 243,391 246,391 247,392 249,392 252,395 253,395 255,397 258,397 259,396 260,396 265,401 265,402 269,402 270,403 268,405 267,404 266,405 264,405 269,405 271,407 274,407 274,404 275,403 281,403 282,404 284,404 285,403 286,403 288,405 288,406 289,407 294,407 295,408 295,409 294,410 293,409 292,410 290,410 295,410 295,407 296,406 299,406 301,408 304,408 305,409 305,412 307,412 307,411 306,412 305,411 305,410 306,409 309,409 310,410 310,411 311,412 311,413 310,414 309,414 309,416 310,417 311,417 309,415 311,413 312,414 312,415 314,417 314,418 316,418 317,419 316,420 313,420 312,419 314,421 315,421 316,420 319,420 320,419 319,419 318,420 316,418 317,417 318,417 319,416 321,416 322,415 324,417 324,420 326,420 327,419 326,419 325,420 324,419 324,418 325,417 330,417 333,420 335,420 336,421 336,424 339,427 339,428 340,429 340,431 341,432 341,433 342,434 342,442 343,442 344,443 344,447 343,448 342,448 342,450 343,450 342,449 344,447 345,448 345,449 346,448 347,449 348,448 349,449 352,449 353,448 354,449 354,450 356,450 356,449 355,450 353,448 354,447 360,447 361,448 368,448 371,445 372,445 372,443 375,440 382,440 383,441 386,441 387,442 390,442 391,443 399,443 402,446 402,447 403,448 403,449 404,450 404,453 405,454 408,454 409,455 412,455 413,454 414,454 415,453 419,453 420,454 422,454 424,456 425,456 426,457 426,458 434,458 435,459 438,459 439,460 437,462 436,461 436,462 437,462 439,460 443,464 444,464 446,466 447,466 448,467 448,470 451,470 450,469 449,470 448,469 448,468 449,467 451,467 451,465 452,464 453,465 453,467 454,468 454,469 460,475 460,476 459,477 460,478 460,481 459,482 459,483 458,484 458,490 457,491 456,491 455,490 456,489 455,489 455,491 456,491 457,492 457,493 458,494 457,493 457,491 458,490 460,492 460,493 461,494 459,496 459,500 457,502 455,502 454,501 454,500 452,500 452,502 453,503 452,504 452,506 453,507 453,509 454,510 454,512 455,513 455,514 453,516 452,516 451,517 450,516 450,517 451,517 452,518 454,518 456,520 456,522 453,525 452,525 452,527 453,527 455,529 455,534 454,535 454,537 453,538 451,538 450,537 451,536 450,537 449,537 449,538 447,540 447,541 448,542 448,539 450,537 452,539 451,540 450,540 450,542 453,545 453,547 454,548 454,551 455,552 456,552 457,553 460,553 460,552 462,550 462,548 468,542 468,541 469,540 471,542 470,543 471,543 471,542 470,541 471,540 474,540 475,541 476,541 477,540 471,540 470,541 469,540 469,539 471,537 473,537 474,538 477,538 478,537 480,539 481,539 481,537 482,536 481,537 481,538 480,539 478,537 479,536 479,535 481,533 484,533 485,532 487,532 492,537 492,538 494,540 494,541 493,542 493,544 493,542 494,541 496,543 496,546 495,547 494,546 493,546 493,547 494,548 495,547 496,547 497,548 497,549 499,551 501,551 502,550 502,548 506,544 507,544 508,543 511,543 512,542 513,543 513,544 516,544 514,544 512,542 513,541 517,541 518,542 518,545 520,545 520,544 521,543 522,543 524,545 524,548 526,548 526,545 528,543 531,543 536,548 536,549 536,548 535,547 535,546 532,543 527,543 525,545 523,543 521,543 520,542 518,542 517,541 512,541 510,543 508,543 507,544 506,544 505,545 504,545 503,546 503,547 502,548 502,549 500,551 497,548 497,547 496,546 496,542 493,539 493,538 492,537 492,536 488,532 484,532 483,533 481,533 476,538 474,538 473,537 470,537 469,538 469,540 462,547 462,549 460,551 460,552 459,553 457,553 454,550 454,548 453,547 453,544 450,541 451,540 452,540 452,539 454,537 454,535 455,534 455,528 454,527 453,527 452,526 453,525 454,525 456,523 456,519 454,517 454,516 455,515 455,512 454,511 454,510 453,509 453,506 452,505 455,502 457,502 459,500 459,497 461,495 461,493 459,491 459,490 458,489 458,485 459,484 459,483 460,482 460,478 459,477 460,476 460,474 454,468 454,467 453,466 453,465 454,464 454,463 455,462 455,458 456,457 456,456 455,455 455,452 456,451 456,450 457,449 457,448 458,447 458,444 459,443 460,443 461,442 462,442 460,442 459,441 460,440 462,440 464,438 468,438 469,439 468,440 465,440 464,441 465,440 468,440 469,439 473,439 474,438 474,435 475,434 476,434 477,433 479,433 479,429 480,428 481,428 483,426 483,425 484,424 484,422 486,420 486,419 487,418 487,414 486,413 486,412 489,409 490,409 491,408 492,408 492,407 493,406 493,405 494,404 494,401 496,399 496,397 497,396 499,396 500,395 501,396 506,396 507,397 507,398 508,398 510,400 510,401 511,402 514,402 515,401 517,403 518,403 519,404 520,404 521,405 520,406 520,407 521,408 521,409 522,409 524,411 529,411 530,410 530,408 531,407 531,406 532,405 535,405 535,404 536,403 539,403 539,400 541,398 542,398 543,397 544,398 547,398 548,399 555,399 557,397 557,396 559,394 559,393 560,392 560,391 561,390 562,390 563,391 563,392 565,394 566,394 567,395 567,396 568,397 568,399 569,400 569,401 568,402 568,406 569,407 569,409 570,410 570,414 571,415 571,420 572,421 572,422 574,424 576,424 577,425 580,425 581,426 583,426 584,427 586,427 587,428 588,428 589,429 590,429 591,430 593,430 594,431 596,431 598,433 598,434 597,435 597,436 595,438 595,439 594,440 594,441 593,442 593,446 592,447 592,448 593,449 593,452 592,453 592,454 591,455 590,455 588,457 588,458 584,462 584,463 582,465 578,465 575,468 573,468 573,471 572,472 571,472 570,473 569,473 566,476 566,477 563,480 563,481 562,482 562,489 561,490 561,491 558,494 558,496 555,499 555,500 554,501 554,502 553,503 548,503 547,504 544,504 543,505 541,505 540,506 540,508 541,509 541,512 542,513 542,512 541,511 541,509 542,508 543,509 543,510 544,511 544,513 545,514 545,516 544,517 543,516 543,515 543,516 542,517 542,520 545,523 545,527 546,528 546,529 547,530 548,530 550,532 550,533 549,534 546,534 545,535 545,536 544,537 544,538 545,539 545,540 543,542 541,542 539,544 538,544 538,546 539,547 539,550 536,553 533,553 533,555 532,556 531,556 531,558 532,558 533,559 533,560 532,561 532,564 534,564 534,563 535,562 537,562 538,563 540,563 541,564 542,564 543,565 544,565 545,566 551,566 552,565 555,565 556,564 561,564 563,566 563,570 565,570 565,567 566,566 567,566 568,565 569,565 571,563 574,563 575,564 573,566 572,565 572,566 573,566 575,568 576,568 575,568 573,566 574,565 579,565 580,566 580,567 581,567 579,565 580,564 582,564 583,563 586,563 587,564 588,564 589,565 590,565 591,566 592,566 595,569 595,570 597,572 598,572 599,573 599,574 598,575 597,574 597,575 599,575 599,572 600,571 601,571 602,570 602,566 604,564 604,561 606,559 612,559 614,561 614,562 616,564 619,564 620,565 621,565 622,566 622,567 621,568 620,568 619,567 619,568 621,568 622,567 628,573 630,573 632,571 637,571 638,572 641,572 642,573 642,575 644,575 644,574 646,572 647,572 648,573 651,573 652,574 653,574 654,575 655,575 656,576 658,576 659,577 663,577 663,576 664,575 664,573 665,572 665,570 670,565 670,562 671,561 671,556 669,554 671,552 672,552 673,551 674,552 675,551 676,552 676,551 675,550 675,551 674,552 673,551 673,550 672,549 672,548 674,546 679,546 680,545 685,545 687,543 688,544 688,545 686,547 685,547 686,547 687,546 688,546 688,544 687,543 688,542 688,541 691,538 692,538 693,537 694,537 697,534 698,534 699,533 706,533 711,538 713,538 714,537 718,537 719,538 719,539 721,539 721,536 722,535 724,537 725,537 726,538 727,538 728,537 729,537 732,540 733,540 734,541 735,541 738,544 739,544 743,548 743,552 748,552 748,551 749,550 750,550 751,551 752,551 753,552 751,554 750,553 750,554 752,554 752,553 753,552 759,552 760,553 760,554 761,555 761,556 763,558 763,560 765,562 776,562 777,561 778,561 778,560 781,557 784,557 787,554 789,554 791,552 791,546 790,545 790,539 789,539 787,537 786,537 783,534 778,534 773,529 773,528 772,527 772,523 771,522 771,520 772,519 772,517 771,517 772,518 772,519 771,520 770,519 769,519 768,518 767,518 766,517 768,515 769,516 769,515 767,515 767,516 766,517 765,517 764,516 763,516 760,513 759,513 756,510 756,509 758,507 761,507 763,505 765,507 766,507 766,506 765,507 763,505 764,504 765,504 766,503 768,503 771,500 771,495 773,493 774,493 774,491 775,490 775,488 774,487 774,485 772,483 772,477 770,475 765,475 762,472 758,472 757,473 756,472 756,471 754,471 754,472 755,471 757,473 756,474 752,474 751,473 746,473 745,474 739,474 738,473 738,472 739,471 739,469 738,469 736,471 733,468 735,466 735,465 734,465 733,464 733,463 732,462 731,462 730,461 730,460 729,461 728,461 727,460 728,459 728,458 731,455 740,455 741,456 741,457 743,457 744,456 745,456 743,456 742,457 740,455 741,454 742,454 743,453 745,453 746,452 746,448 747,447 749,449 748,450 749,451 749,452 749,449 747,447 747,443 748,442 749,442 750,443 750,446 750,445 751,444 752,444 752,443 753,442 758,442 759,443 757,445 754,445 757,445 759,443 764,443 764,442 765,441 765,438 764,437 764,434 765,433 765,429 766,428 766,422 765,421 765,416 766,415 765,414 766,413 766,408 768,406 769,406 771,404 772,404 775,407 777,407 780,404 782,406 781,407 780,407 782,407 782,405 781,405 780,404 780,402 782,400 783,401 783,402 782,403 784,401 784,398 783,398 784,399 784,400 783,401 781,399 781,397 782,396 782,391 779,388 779,387 780,386 781,386 782,387 782,388 782,386 780,386 779,387 775,383 775,381 776,380 778,382 778,383 778,381 777,381 776,380 776,374 781,369 782,370 782,371 781,372 782,371 784,371 784,370 785,369 783,371 782,370 782,369 783,368 783,364 784,363 786,363 786,361 785,361 786,362 785,363 784,363 783,362 783,359 781,357 781,355 780,354 781,353 782,353 784,355 784,357 784,355 783,354 783,353 781,353 780,354 778,352 778,345 777,344 777,343 776,342 776,340 775,339 775,336 774,335 774,333 773,332 772,332 771,331 769,331 768,330 763,330 762,329 762,327 763,326 763,325 764,324 765,325 765,326 766,325 766,322 766,323 765,324 764,324 763,323 763,322 764,321 764,319 765,318 765,313 766,312 768,314 768,315 767,316 768,316 768,313 767,313 766,312 767,311 767,308 766,307 766,306 764,304 764,303 763,302 763,301 760,298 761,297 761,295 759,295 758,294 757,294 758,294 759,295 759,296 758,297 757,297 755,295 755,289 756,288 757,288 758,289 758,290 757,291 758,291 758,289 757,288 757,286 760,283 761,283 762,282 762,280 760,280 759,279 759,276 757,276 757,277 756,278 755,277 754,277 752,275 752,274 750,272 748,272 747,271 747,270 748,269 749,269 750,270 750,269 747,269 746,268 746,267 744,267 743,266 742,266 740,264 740,263 739,262 740,261 741,261 742,262 742,263 743,264 742,263 742,261 740,261 739,262 736,262 735,263 733,263 732,262 728,262 726,260 726,254 727,253 729,255 729,256 728,257 728,258 729,257 729,254 728,254 727,253 728,252 728,250 727,249 727,242 726,241 725,241 719,235 719,231 718,230 718,227 719,226 719,222 718,221 718,219 719,218 719,216 718,216 719,217 719,218 718,219 715,216 715,214 714,213 714,212 715,211 715,208 714,207 712,207 711,206 710,206 706,202 706,201 705,200 705,199 704,198 704,194 703,193 703,189 704,188 704,187 705,186 705,184 706,183 707,183 708,184 707,185 708,185 708,183 706,183 705,184 701,180 701,175 698,172 698,169 699,168 699,167 700,166 700,162 699,161 699,160 698,159 689,159 688,158 687,158 686,157 688,155 689,156 690,156 691,157 691,156 690,156 689,155 687,155 687,156 686,157 685,157 684,158 678,158 676,156 676,155 675,154 675,153 674,152 674,151 672,149 662,149 661,150 660,150 658,148 658,146 656,144 656,143 657,142 658,143 658,142 657,142 656,143 654,143 651,140 653,138 653,137 651,137 650,136 648,136 648,137 649,136 650,136 651,137 652,137 653,138 651,140 650,139 647,139 646,138 646,137 645,137 647,139 646,140 644,140 642,138 643,137 643,135 640,135 639,136 638,136 637,137 638,137 640,135 642,135 643,136 643,137 642,138 640,138 637,141 636,140 636,139 635,138 635,134 633,134 633,135 634,134 635,135 635,136 634,137 632,137 631,136 630,136 627,133 627,131 625,129 625,127 624,126 624,124 623,123 622,123 620,121 620,119 621,118 622,118 623,119 622,120 623,121 624,121 625,122 625,121 624,121 623,120 623,118 621,118 620,119 616,115 614,115 612,113 611,113 610,112 609,112 607,110 604,110 603,109 599,109 598,108 596,108 594,106 594,105 595,104 595,103 594,102 593,102 592,101 590,101 589,102 588,102 588,104 588,103 590,101 592,101 593,102 594,102 595,103 595,104 594,105 593,104 590,104 590,105 586,109 585,109 584,110 583,110 582,109 584,107 582,109 581,109 581,112 580,113 580,114 579,115 579,116 578,117 577,117 573,121 572,120 572,119 575,116 574,117 573,117 573,118 572,119 567,119 566,120 565,120 564,121 563,121 560,118 558,118 557,117 556,117 555,116 555,115 550,115 549,116 549,118 545,122 544,122 544,128 541,131 540,131 536,135 536,142 538,144 538,151 540,153 540,156 539,157 539,160 538,161 539,162 539,164 540,165 540,168 537,171 530,171 529,170 529,169 527,169 527,170 528,169 530,171 529,172 525,172 523,174 522,174 520,176 510,176 509,177 508,177 505,180 505,181 498,188 496,188 495,187 496,186 496,184 494,184 494,185 493,186 492,186 491,185 489,185 488,186 486,186 485,187 483,187 481,189 481,190 479,192 477,190 479,188 478,188 478,189 477,190 476,190 476,192 477,193 474,196 474,197 472,199 470,197 469,197 469,198 468,199 465,199 463,201 461,199 460,199 460,200 461,199 463,201 462,202 456,202 455,201 453,201 452,200 451,200 450,201 450,202 448,204 447,204 447,205 445,207 443,207 442,206 440,206 440,215 439,216 437,216 436,217 434,217 433,218 428,218 427,217 429,215 430,216 430,215 428,215 428,216 426,218 425,217 421,217 420,218 418,218 416,220 416,221 415,222 415,223 416,224 414,226 414,227 413,228 413,230 412,231 412,232 411,233 411,235 409,237 409,238 408,239 406,239 405,238 405,237 404,236 403,236 402,235 401,235 400,234 400,233 398,231 398,221 397,220 397,217 396,216 396,211 397,210 397,206 396,205 396,203 397,202 397,200 398,199 398,197 399,196 398,196 397,195 399,193 400,194 400,193 399,193 398,192 398,191 396,191 395,192 390,187 389,187 388,186 387,186 386,185 388,183 389,184 389,183 387,183 387,184 386,185 384,185 383,184 380,184 379,185 373,185 371,183 371,182 370,181 370,179 367,176 367,175 365,173 365,172 364,171 364,170 365,169 366,169 366,167 364,167 363,168 361,166 359,166 357,164 357,161 356,160 356,159 357,158 357,157 356,156 356,154 355,153 355,152 356,151 357,151 359,153 359,155 359,153 358,152 358,151 356,151 355,152 350,147 352,145 352,142 351,142 352,143 352,145 350,147 349,146 349,141 347,139 347,133 348,132 348,130 346,130 346,131 345,132 344,131 343,131 339,127 339,113 338,112 338,108 339,107 340,107 340,105 338,105 337,106 336,105 328,105 324,101 324,100 321,97 323,95 324,96 323,95 322,95 322,96 321,97 320,97 319,98 317,98 314,95 314,94 313,93 308,93 307,92 305,92 303,94 302,93 296,93 295,92 295,91 294,91 293,92 294,91 296,93 295,94 294,94 293,95 292,94 289,94 288,93 290,91 291,92 291,91 289,91 289,92 288,93 285,90 282,90 281,89 281,88 278,88 280,88 282,90 281,91 278,91 276,89 276,88 275,87 275,86 271,82 271,76 270,75 270,74 269,73 269,70 268,69 268,67 266,65 265,65 264,64 262,64 261,63 257,63 253,67 252,67 251,68 241,68 240,69 240,71 241,72 241,80 240,81 239,80 238,80 237,81 237,88 238,88 237,87 238,86 237,85 237,81 238,80 239,80 240,81 240,89 239,90 239,92 238,93 226,93 226,94 224,96 224,100 223,101 223,105 221,107 217,103 216,103 215,102 214,103 214,104 212,106 212,108 211,109 210,108 210,105 209,104 208,104 205,101 204,101 203,100 202,100 201,99 202,98 202,96 200,96 199,97 198,96 198,95 197,94 196,94 194,92 193,92 192,91 192,90 190,88 186,88 185,87 185,83 184,82 184,79 185,78 186,78 186,76 185,76 186,77 184,79 183,78 183,73 186,70 186,69 188,67 188,64 190,62 190,61 188,61 187,62 184,62 183,61 181,61 180,60 182,58 183,59 185,59 186,60 186,59 184,59 183,58 181,58 181,59 180,60 178,60 177,59 172,59 171,58 169,58 167,56 165,56 163,58 161,58 159,60 158,60 155,63 155,64 153,66 152,66 149,69 148,69 146,71 146,73 143,76 142,76 140,78 138,78 137,79 136,79 135,80 134,80 133,81 130,81 129,82 128,82 127,83 125,83 124,84 123,84 122,85 121,85 121,87 123,89 124,89 126,91 130,91 132,93 131,94 130,94 129,93 125,93 123,91 122,91 119,88 119,87 118,86 117,86 116,87 114,87 113,88 109,88 108,87 108,86 104,82 104,81 103,80 103,79 102,78 102,73 103,72 103,69 104,68 104,67 105,66 106,66 106,65 105,64 106,65 104,67 103,66 103,65 101,63 101,62 100,61 100,50 99,49 99,48 98,47 98,46 96,44 95,44 93,42 Z" />
    <path d="M 87,39 86,40 87,41 86,40 87,39 88,39 Z" />
  </g>
</svg>