<svg width="50" height="51" viewBox="0 0 50 51" fill="none" xmlns="http://www.w3.org/2000/svg">
<path d="M12.5 27.9607H37.5V22.9607H12.5V27.9607ZM25 50.4607C21.5417 50.4607 18.2917 49.8044 15.25 48.4919C12.2083 47.1794 9.5625 45.3982 7.3125 43.1482C5.0625 40.8982 3.28125 38.2524 1.96875 35.2107C0.65625 32.169 0 28.919 0 25.4607C0 22.0024 0.65625 18.7524 1.96875 15.7107C3.28125 12.669 5.0625 10.0232 7.3125 7.77319C9.5625 5.52319 12.2083 3.74194 15.25 2.42944C18.2917 1.11694 21.5417 0.460693 25 0.460693C28.4583 0.460693 31.7083 1.11694 34.75 2.42944C37.7917 3.74194 40.4375 5.52319 42.6875 7.77319C44.9375 10.0232 46.7188 12.669 48.0312 15.7107C49.3438 18.7524 50 22.0024 50 25.4607C50 28.919 49.3438 32.169 48.0312 35.2107C46.7188 38.2524 44.9375 40.8982 42.6875 43.1482C40.4375 45.3982 37.7917 47.1794 34.75 48.4919C31.7083 49.8044 28.4583 50.4607 25 50.4607ZM25 45.4607C30.5833 45.4607 35.3125 43.5232 39.1875 39.6482C43.0625 35.7732 45 31.044 45 25.4607C45 19.8774 43.0625 15.1482 39.1875 11.2732C35.3125 7.39819 30.5833 5.46069 25 5.46069C19.4167 5.46069 14.6875 7.39819 10.8125 11.2732C6.9375 15.1482 5 19.8774 5 25.4607C5 31.044 6.9375 35.7732 10.8125 39.6482C14.6875 43.5232 19.4167 45.4607 25 45.4607Z" fill="white"/>
</svg>
