<svg width="50" height="50" viewBox="0 0 50 50" fill="none" xmlns="http://www.w3.org/2000/svg">
<path d="M26.6875 24.9998L19 32.6873L22.5 36.2498L33.75 24.9998L22.5 13.7498L19 17.3123L26.6875 24.9998ZM25 49.9998C21.5417 49.9998 18.2917 49.3435 15.25 48.031C12.2083 46.7185 9.5625 44.9373 7.3125 42.6873C5.0625 40.4373 3.28125 37.7914 1.96875 34.7498C0.65625 31.7081 0 28.4581 0 24.9998C0 21.5414 0.65625 18.2914 1.96875 15.2498C3.28125 12.2081 5.0625 9.56226 7.3125 7.31226C9.5625 5.06226 12.2083 3.28101 15.25 1.96851C18.2917 0.656006 21.5417 -0.000244141 25 -0.000244141C28.4583 -0.000244141 31.7083 0.656006 34.75 1.96851C37.7917 3.28101 40.4375 5.06226 42.6875 7.31226C44.9375 9.56226 46.7188 12.2081 48.0312 15.2498C49.3438 18.2914 50 21.5414 50 24.9998C50 28.4581 49.3438 31.7081 48.0312 34.7498C46.7188 37.7914 44.9375 40.4373 42.6875 42.6873C40.4375 44.9373 37.7917 46.7185 34.75 48.031C31.7083 49.3435 28.4583 49.9998 25 49.9998ZM25 44.9998C30.5833 44.9998 35.3125 43.0623 39.1875 39.1873C43.0625 35.3123 45 30.5831 45 24.9998C45 19.4164 43.0625 14.6873 39.1875 10.8123C35.3125 6.93726 30.5833 4.99976 25 4.99976C19.4167 4.99976 14.6875 6.93726 10.8125 10.8123C6.9375 14.6873 5 19.4164 5 24.9998C5 30.5831 6.9375 35.3123 10.8125 39.1873C14.6875 43.0623 19.4167 44.9998 25 44.9998Z" fill="#8299A4"/>
</svg>
