<svg width="50" height="50" viewBox="0 0 50 50" fill="none" xmlns="http://www.w3.org/2000/svg">
<path d="M23.3125 24.9998L31 32.6873L27.5 36.2498L16.25 24.9998L27.5 13.7498L31 17.3123L23.3125 24.9998ZM25 49.9998C28.4583 49.9998 31.7083 49.3435 34.75 48.031C37.7917 46.7185 40.4375 44.9373 42.6875 42.6873C44.9375 40.4373 46.7187 37.7914 48.0312 34.7498C49.3438 31.7081 50 28.4581 50 24.9998C50 21.5414 49.3438 18.2914 48.0312 15.2498C46.7187 12.2081 44.9375 9.56226 42.6875 7.31226C40.4375 5.06226 37.7917 3.28101 34.75 1.96851C31.7083 0.656006 28.4583 -0.000244141 25 -0.000244141C21.5417 -0.000244141 18.2917 0.656006 15.25 1.96851C12.2083 3.28101 9.5625 5.06226 7.3125 7.31226C5.0625 9.56226 3.28125 12.2081 1.96875 15.2498C0.65625 18.2914 0 21.5414 0 24.9998C0 28.4581 0.65625 31.7081 1.96875 34.7498C3.28125 37.7914 5.0625 40.4373 7.3125 42.6873C9.5625 44.9373 12.2083 46.7185 15.25 48.031C18.2917 49.3435 21.5417 49.9998 25 49.9998ZM25 44.9998C19.4167 44.9998 14.6875 43.0623 10.8125 39.1873C6.9375 35.3123 5 30.5831 5 24.9998C5 19.4164 6.9375 14.6873 10.8125 10.8123C14.6875 6.93726 19.4167 4.99976 25 4.99976C30.5833 4.99976 35.3125 6.93726 39.1875 10.8123C43.0625 14.6873 45 19.4164 45 24.9998C45 30.5831 43.0625 35.3123 39.1875 39.1873C35.3125 43.0623 30.5833 44.9998 25 44.9998Z" fill="#8299A4"/>
</svg>
