<svg width="60" height="60" viewBox="0 0 60 60" fill="none" xmlns="http://www.w3.org/2000/svg">
<mask id="mask0_119_46" style="mask-type:alpha" maskUnits="userSpaceOnUse" x="0" y="0" width="60" height="60">
<rect width="60" height="60" fill="#D9D9D9"/>
</mask>
<g mask="url(#mask0_119_46)">
<path d="M30 55C26.875 55 23.9479 54.4062 21.2188 53.2188C18.4896 52.0312 16.1146 50.4271 14.0938 48.4063C12.0729 46.3854 10.4688 44.0104 9.28125 41.2812C8.09375 38.5521 7.5 35.625 7.5 32.5H12.5C12.5 37.375 14.1979 41.5104 17.5938 44.9062C20.9896 48.3021 25.125 50 30 50C34.875 50 39.0104 48.3021 42.4062 44.9062C45.8021 41.5104 47.5 37.375 47.5 32.5C47.5 27.625 45.8021 23.4896 42.4062 20.0938C39.0104 16.6979 34.875 15 30 15H29.625L33.5 18.875L30 22.5L20 12.5L30 2.5L33.5 6.125L29.625 10H30C33.125 10 36.0521 10.5938 38.7812 11.7812C41.5104 12.9688 43.8854 14.5729 45.9062 16.5938C47.9271 18.6146 49.5312 20.9896 50.7188 23.7188C51.9062 26.4479 52.5 29.375 52.5 32.5C52.5 35.625 51.9062 38.5521 50.7188 41.2812C49.5312 44.0104 47.9271 46.3854 45.9062 48.4063C43.8854 50.4271 41.5104 52.0312 38.7812 53.2188C36.0521 54.4062 33.125 55 30 55Z" fill="white"/>
</g>
</svg>
