<svg width="38" height="44" viewBox="0 0 38 44" fill="none" xmlns="http://www.w3.org/2000/svg">
<path d="M16.5 43.577C11.8108 42.9678 7.93021 40.9022 4.85812 37.3801C1.78604 33.8576 0.25 29.7309 0.25 25.0001C0.25 22.4584 0.751667 20.0234 1.755 17.6951C2.75833 15.3663 4.16375 13.3205 5.97125 11.5576L8.64437 14.2307C7.10896 15.6316 5.95104 17.2574 5.17063 19.1082C4.39021 20.9591 4 22.923 4 25.0001C4 28.6668 5.17063 31.8984 7.51188 34.6951C9.85313 37.4913 12.8492 39.202 16.5 39.827V43.577ZM21.5 43.6251V39.8751C25.1092 39.1443 28.0948 37.3951 30.4569 34.6276C32.819 31.8601 34 28.6509 34 25.0001C34 20.8334 32.5417 17.2918 29.625 14.3751C26.7083 11.4584 23.1667 10.0001 19 10.0001H18.1156L21.4906 13.3751L18.8556 16.0095L10.9713 8.1251L18.8556 0.240723L21.4906 2.8751L18.1156 6.2501H19C24.2308 6.2501 28.6635 8.06739 32.2981 11.702C35.9327 15.3366 37.75 19.7693 37.75 25.0001C37.75 29.7051 36.21 33.8109 33.13 37.3176C30.0496 40.8239 26.1729 42.9263 21.5 43.6251Z" fill="white"/>
</svg>
