<svg width="172" height="81" viewBox="0 0 172 81" fill="none" xmlns="http://www.w3.org/2000/svg">
<g clip-path="url(#clip0_119_224)">
<path d="M85.9998 34.3728C133.497 34.3728 172 44.6916 172 57.4213C172 70.151 133.498 80.4697 86.0002 80.4697C38.5025 80.4697 0 70.151 0 57.4213C0 44.6916 38.5025 34.3728 86.0002 34.3728" fill="#F5C81F"/>
<mask id="mask0_119_224" style="mask-type:luminance" maskUnits="userSpaceOnUse" x="21" y="35" width="130" height="31">
<path d="M21.5 65.0212H150.5V35.7002H21.5V65.0212Z" fill="white"/>
</mask>
<g mask="url(#mask0_119_224)">
<path d="M86 35.7002C121.623 35.7002 150.5 42.2627 150.5 50.3607C150.5 58.4587 121.623 65.0212 86 65.0212C50.3771 65.0212 21.5 58.4587 21.5 50.3607C21.5 42.2627 50.3771 35.7002 86 35.7002Z" fill="#369244"/>
</g>
<path d="M85.9796 0.5C72.8123 0.5 61.3024 14.6991 55.0461 35.867C56.4074 35.7314 57.79 35.6032 59.1849 35.4835C57.7908 35.6032 56.4095 35.7319 55.0448 35.868C51.873 46.6031 50.0483 59.1319 50.0483 72.5147C50.0483 74.5307 50.091 76.5252 50.1734 78.4986C51.1348 78.6141 52.097 78.7235 53.0598 78.8268C52.9539 76.7244 52.9003 74.6197 52.8992 72.5147C52.8992 58.1291 55.3547 45.0752 59.3495 35.469H59.35C63.5542 25.3607 69.4618 19.0716 76.0028 19.0716C82.3269 19.0716 88.0604 24.9519 92.2288 34.4791C96.4756 44.168 99.104 57.6304 99.104 72.5131C99.104 75.1271 99.0226 77.6961 98.866 80.2115C106.94 79.8664 114.637 79.2216 121.797 78.3232C121.875 76.3875 121.915 74.4504 121.914 72.5131C121.914 59.195 120.107 46.7225 116.963 36.0186C110.713 14.7662 99.1792 0.5 85.9796 0.5Z" fill="#F5C81F"/>
<path d="M76.0035 19.0718C69.4604 19.0718 63.5554 25.3622 59.3497 35.4692C55.355 45.0751 52.8994 58.1292 52.8994 72.5149C52.8994 74.6505 52.9568 76.7582 53.06 78.827C53.9651 78.9258 54.8777 79.0212 55.8004 79.1129C55.7578 78.0044 55.7327 76.8818 55.7327 75.7448C55.7327 56.4526 62.0976 40.8138 69.9452 40.8138C77.7924 40.8138 84.1531 56.4526 84.1531 75.7448C84.1531 77.3585 84.1104 78.9432 84.025 80.4965C84.4385 80.4965 84.8517 80.5002 85.2692 80.5002C89.8946 80.5002 94.4386 80.4013 98.8684 80.2106C99.025 77.6973 99.1069 75.1272 99.1069 72.5149C99.1069 57.6282 96.4737 44.1674 92.2325 34.4809C88.0593 24.9526 82.3287 19.0718 76.0035 19.0718Z" fill="#369244"/>
<mask id="mask1_119_224" style="mask-type:luminance" maskUnits="userSpaceOnUse" x="55" y="40" width="30" height="41">
<path d="M55.7329 80.4702H84.1536V40.7871H55.7329V80.4702Z" fill="white"/>
</mask>
<g mask="url(#mask1_119_224)">
<path d="M84.1536 75.7179C84.1536 77.3316 84.1109 78.9164 84.0256 80.4698C74.1216 80.4311 64.6207 79.9473 55.8005 79.0859C55.7578 77.9774 55.7329 76.8549 55.7329 75.7179C55.7329 56.4257 62.0978 40.7871 69.9452 40.7871C77.7926 40.7871 84.1536 56.4257 84.1536 75.7179Z" fill="#D61A3D"/>
</g>
</g>
<defs>
<clipPath id="clip0_119_224">
<rect width="172" height="80" fill="white" transform="translate(0 0.5)"/>
</clipPath>
</defs>
</svg>
