<svg width="29" height="29" viewBox="0 0 29 29" fill="none" xmlns="http://www.w3.org/2000/svg">
<path d="M13.25 4.5V0.75H15.75V4.5H13.25ZM13.25 28.25V24.5H15.75V28.25H13.25ZM24.5 15.75V13.25H28.25V15.75H24.5ZM0.75 15.75V13.25H4.5V15.75H0.75ZM22.875 7.875L21.125 6.125L23.3125 3.875L25.125 5.6875L22.875 7.875ZM5.6875 25.125L3.875 23.3125L6.125 21.125L7.875 22.875L5.6875 25.125ZM23.3125 25.125L21.125 22.875L22.875 21.125L25.125 23.3125L23.3125 25.125ZM6.125 7.875L3.875 5.6875L5.6875 3.875L7.875 6.125L6.125 7.875ZM14.5 22C12.4167 22 10.6458 21.2708 9.1875 19.8125C7.72917 18.3542 7 16.5833 7 14.5C7 12.4167 7.72917 10.6458 9.1875 9.1875C10.6458 7.72917 12.4167 7 14.5 7C16.5833 7 18.3542 7.72917 19.8125 9.1875C21.2708 10.6458 22 12.4167 22 14.5C22 16.5833 21.2708 18.3542 19.8125 19.8125C18.3542 21.2708 16.5833 22 14.5 22ZM14.5 19.5C15.8958 19.5 17.0781 19.0156 18.0469 18.0469C19.0156 17.0781 19.5 15.8958 19.5 14.5C19.5 13.1042 19.0156 11.9219 18.0469 10.9531C17.0781 9.98438 15.8958 9.5 14.5 9.5C13.1042 9.5 11.9219 9.98438 10.9531 10.9531C9.98438 11.9219 9.5 13.1042 9.5 14.5C9.5 15.8958 9.98438 17.0781 10.9531 18.0469C11.9219 19.0156 13.1042 19.5 14.5 19.5Z" fill="black"/>
</svg>
